<?xml version="1.0" encoding="UTF-8" standalone="no"?>
<!DOCTYPE svg PUBLIC "-//W3C//DTD SVG 1.1//EN" "http://www.w3.org/Graphics/SVG/1.1/DTD/svg11.dtd">
<svg width="100%" height="100%" viewBox="0 0 711 597" version="1.1" xmlns="http://www.w3.org/2000/svg" xmlns:xlink="http://www.w3.org/1999/xlink" xml:space="preserve" xmlns:serif="http://www.serif.com/" style="fill-rule:evenodd;clip-rule:evenodd;stroke-linecap:round;stroke-linejoin:round;">
    <path d="M0.71,0.71L0.71,595.98" style="fill:none;fill-rule:nonzero;stroke:white;stroke-width:1.42px;"/>
    <path d="M142.44,0.71L142.44,581.81" style="fill:none;fill-rule:nonzero;stroke:white;stroke-width:1.42px;"/>
    <path d="M284.17,0.71L284.17,581.81" style="fill:none;fill-rule:nonzero;stroke:white;stroke-width:1.42px;"/>
    <path d="M709.37,581.81L709.37,0.71" style="fill:none;fill-rule:nonzero;stroke:white;stroke-width:1.42px;"/>
    <path d="M14.25,581.81L709.37,581.81" style="fill:none;fill-rule:nonzero;stroke:white;stroke-width:1.42px;"/>
    <path d="M0.71,595.98L709.37,595.98" style="fill:none;fill-rule:nonzero;stroke:white;stroke-width:1.42px;"/>
    <path d="M14.25,440.08L709.37,440.08" style="fill:none;fill-rule:nonzero;stroke:white;stroke-width:1.42px;"/>
    <path d="M14.25,298.35L709.37,298.35" style="fill:none;fill-rule:nonzero;stroke:white;stroke-width:1.42px;"/>
    <path d="M14.25,156.61L709.37,156.61" style="fill:none;fill-rule:nonzero;stroke:white;stroke-width:1.42px;"/>
    <path d="M14.25,14.88L709.37,14.88" style="fill:none;fill-rule:nonzero;stroke:white;stroke-width:1.42px;"/>
    <path d="M709.37,0.71L0.71,0.71" style="fill:none;fill-rule:nonzero;stroke:white;stroke-width:1.42px;"/>
    <g transform="matrix(1,0,0,1.05471,0,-0.0388406)">
        <path d="M425.91,0.71L425.91,499.35" style="fill:none;fill-rule:nonzero;stroke:white;stroke-width:1.42px;"/>
    </g>
    <path d="M425.91,522.54L425.91,581.81" style="fill:none;fill-rule:nonzero;stroke:white;stroke-width:1.42px;"/>
    <path d="M567.64,0.71L567.64,499.35" style="fill:none;fill-rule:nonzero;stroke:white;stroke-width:1.42px;"/>
    <g transform="matrix(1,0,0,5.0423,0,-2112.26)">
        <path d="M567.64,522.54L567.64,527.69" style="fill:none;fill-rule:nonzero;stroke:white;stroke-width:0.39px;"/>
    </g>
    <path d="M567.64,548.31L567.64,581.81" style="fill:none;fill-rule:nonzero;stroke:white;stroke-width:1.42px;"/>
    <path d="M85.75,0.71L85.75,581.81" style="fill:none;fill-rule:nonzero;stroke:white;stroke-width:0.37px;"/>
    <path d="M114.09,0.71L114.09,581.81" style="fill:none;fill-rule:nonzero;stroke:white;stroke-width:0.37px;"/>
    <path d="M170.79,0.71L170.79,581.81" style="fill:none;fill-rule:nonzero;stroke:white;stroke-width:0.37px;"/>
    <path d="M199.13,0.71L199.13,581.81" style="fill:none;fill-rule:nonzero;stroke:white;stroke-width:0.37px;"/>
    <path d="M227.48,0.71L227.48,581.81" style="fill:none;fill-rule:nonzero;stroke:white;stroke-width:0.37px;"/>
    <path d="M255.83,0.71L255.83,581.81" style="fill:none;fill-rule:nonzero;stroke:white;stroke-width:0.37px;"/>
    <path d="M312.52,0.71L312.52,581.81" style="fill:none;fill-rule:nonzero;stroke:white;stroke-width:0.37px;"/>
    <path d="M340.87,0.71L340.87,581.81" style="fill:none;fill-rule:nonzero;stroke:white;stroke-width:0.37px;"/>
    <path d="M681.02,0.71L681.02,581.81" style="fill:none;fill-rule:nonzero;stroke:white;stroke-width:0.37px;"/>
    <path d="M29.06,0.71L29.06,581.81" style="fill:none;fill-rule:nonzero;stroke:white;stroke-width:0.37px;"/>
    <path d="M57.4,0.71L57.4,581.81" style="fill:none;fill-rule:nonzero;stroke:white;stroke-width:0.37px;"/>
    <path d="M14.25,468.43L709.37,468.43" style="fill:none;fill-rule:nonzero;stroke:white;stroke-width:0.37px;"/>
    <path d="M14.25,496.77L709.37,496.77" style="fill:none;fill-rule:nonzero;stroke:white;stroke-width:0.37px;"/>
    <path d="M14.25,525.12L709.37,525.12" style="fill:none;fill-rule:nonzero;stroke:white;stroke-width:0.37px;"/>
    <path d="M14.25,553.46L709.37,553.46" style="fill:none;fill-rule:nonzero;stroke:white;stroke-width:0.37px;"/>
    <path d="M14.25,411.73L709.37,411.73" style="fill:none;fill-rule:nonzero;stroke:white;stroke-width:0.37px;"/>
    <path d="M14.25,383.39L709.37,383.39" style="fill:none;fill-rule:nonzero;stroke:white;stroke-width:0.37px;"/>
    <path d="M14.25,355.04L709.37,355.04" style="fill:none;fill-rule:nonzero;stroke:white;stroke-width:0.37px;"/>
    <path d="M14.25,326.69L709.37,326.69" style="fill:none;fill-rule:nonzero;stroke:white;stroke-width:0.37px;"/>
    <path d="M14.25,270L709.37,270" style="fill:none;fill-rule:nonzero;stroke:white;stroke-width:0.37px;"/>
    <path d="M14.25,241.65L709.37,241.65" style="fill:none;fill-rule:nonzero;stroke:white;stroke-width:0.37px;"/>
    <path d="M14.25,213.31L709.37,213.31" style="fill:none;fill-rule:nonzero;stroke:white;stroke-width:0.37px;"/>
    <path d="M14.25,184.96L709.37,184.96" style="fill:none;fill-rule:nonzero;stroke:white;stroke-width:0.37px;"/>
    <path d="M14.25,128.27L709.37,128.27" style="fill:none;fill-rule:nonzero;stroke:white;stroke-width:0.37px;"/>
    <path d="M14.25,99.92L709.37,99.92" style="fill:none;fill-rule:nonzero;stroke:white;stroke-width:0.37px;"/>
    <path d="M14.25,71.57L709.37,71.57" style="fill:none;fill-rule:nonzero;stroke:white;stroke-width:0.37px;"/>
    <path d="M14.25,43.23L709.37,43.23" style="fill:none;fill-rule:nonzero;stroke:white;stroke-width:0.37px;"/>
    <g transform="matrix(1,0,0,1.06227,0,-0.0442148)">
        <path d="M369.21,0.71L369.21,499.35" style="fill:none;fill-rule:nonzero;stroke:white;stroke-width:0.37px;"/>
    </g>
    <path d="M369.21,522.54L369.21,581.81" style="fill:none;fill-rule:nonzero;stroke:white;stroke-width:0.37px;"/>
    <g transform="matrix(1,0,0,1.06296,0,-0.0447033)">
        <path d="M397.56,0.71L397.56,499.35" style="fill:none;fill-rule:nonzero;stroke:white;stroke-width:0.37px;"/>
    </g>
    <path d="M397.56,522.54L397.56,581.81" style="fill:none;fill-rule:nonzero;stroke:white;stroke-width:0.37px;"/>
    <path d="M454.25,0.71L454.25,499.35" style="fill:none;fill-rule:nonzero;stroke:white;stroke-width:0.37px;"/>
    <path d="M454.25,522.54L454.25,581.81" style="fill:none;fill-rule:nonzero;stroke:white;stroke-width:0.37px;"/>
    <path d="M482.6,0.71L482.6,499.35" style="fill:none;fill-rule:nonzero;stroke:white;stroke-width:0.37px;"/>
    <path d="M482.6,522.54L482.6,581.81" style="fill:none;fill-rule:nonzero;stroke:white;stroke-width:0.37px;"/>
    <path d="M510.94,0.71L510.94,499.35" style="fill:none;fill-rule:nonzero;stroke:white;stroke-width:0.37px;"/>
    <path d="M510.94,522.54L510.94,581.81" style="fill:none;fill-rule:nonzero;stroke:white;stroke-width:0.37px;"/>
    <path d="M539.29,0.71L539.29,499.35" style="fill:none;fill-rule:nonzero;stroke:white;stroke-width:0.37px;"/>
    <path d="M539.29,522.54L539.29,581.81" style="fill:none;fill-rule:nonzero;stroke:white;stroke-width:0.37px;"/>
    <path d="M595.98,0.71L595.98,499.35" style="fill:none;fill-rule:nonzero;stroke:white;stroke-width:0.37px;"/>
    <path d="M624.33,0.71L624.33,499.35" style="fill:none;fill-rule:nonzero;stroke:white;stroke-width:0.37px;"/>
    <path d="M652.68,0.71L652.68,499.35" style="fill:none;fill-rule:nonzero;stroke:white;stroke-width:0.37px;"/>
    <g transform="matrix(1,0,0,5.09347,0,-2139)">
        <path d="M652.68,522.54L652.68,527.69" style="fill:none;fill-rule:nonzero;stroke:white;stroke-width:0.11px;"/>
    </g>
    <path d="M652.68,548.31L652.68,581.81" style="fill:none;fill-rule:nonzero;stroke:white;stroke-width:0.37px;"/>
    <g transform="matrix(1,0,0,5.22992,0,-2210.3)">
        <path d="M624.33,522.54L624.33,527.69" style="fill:none;fill-rule:nonzero;stroke:white;stroke-width:0.11px;"/>
    </g>
    <path d="M624.33,548.31L624.33,581.81" style="fill:none;fill-rule:nonzero;stroke:white;stroke-width:0.37px;"/>
    <g transform="matrix(1,0,0,5.12758,0,-2156.82)">
        <path d="M595.98,522.54L595.98,527.69" style="fill:none;fill-rule:nonzero;stroke:white;stroke-width:0.11px;"/>
    </g>
    <path d="M595.98,548.31L595.98,581.81" style="fill:none;fill-rule:nonzero;stroke:white;stroke-width:0.37px;"/>
    <g transform="matrix(1,0,0,1,0.14,0.14)">
        <path d="M27,588.28C27.186,588.296 27.374,588.296 27.56,588.28C27.732,588.246 27.9,588.193 28.06,588.12C28.2,588.046 28.325,587.948 28.43,587.83C28.537,587.708 28.609,587.559 28.64,587.4L29.38,587.4L29.38,593L28.38,593L28.38,589L27,589L27,588.28Z" style="fill:white;fill-rule:nonzero;"/>
    </g>
    <g transform="matrix(1,0,0,1,0.14,0.14)">
        <path d="M58.7,593L54.87,593C54.87,592.57 54.987,592.148 55.21,591.78C55.447,591.423 55.753,591.117 56.11,590.88L56.67,590.49C56.863,590.371 57.047,590.237 57.22,590.09C57.375,589.951 57.513,589.793 57.63,589.62C57.734,589.444 57.792,589.244 57.8,589.04C57.809,588.93 57.809,588.82 57.8,588.71C57.777,588.595 57.729,588.486 57.66,588.39C57.585,588.287 57.485,588.204 57.37,588.15C57.222,588.074 57.057,588.036 56.89,588.04C56.733,588.036 56.577,588.074 56.44,588.15C56.319,588.224 56.22,588.327 56.15,588.45C56.073,588.587 56.019,588.736 55.99,588.89C55.949,589.074 55.929,589.262 55.93,589.45L55,589.45C54.997,589.159 55.038,588.869 55.12,588.59C55.194,588.337 55.32,588.102 55.49,587.9C55.66,587.709 55.867,587.556 56.1,587.45C56.637,587.223 57.243,587.223 57.78,587.45C57.996,587.551 58.187,587.698 58.34,587.88C58.476,588.041 58.578,588.228 58.64,588.43C58.698,588.618 58.728,588.813 58.73,589.01C58.73,589.218 58.693,589.425 58.62,589.62C58.55,589.799 58.456,589.967 58.34,590.12C58.223,590.274 58.088,590.415 57.94,590.54L57.48,590.9L56.55,591.52C56.424,591.616 56.307,591.723 56.2,591.84C56.104,591.939 56.033,592.059 55.99,592.19L58.7,592.19L58.7,593Z" style="fill:white;fill-rule:nonzero;"/>
    </g>
    <g transform="matrix(1,0,0,1,0.14,0.14)">
        <path d="M84.73,589.67L85.18,589.67C85.319,589.642 85.454,589.595 85.58,589.53C85.697,589.461 85.797,589.365 85.87,589.25C85.942,589.118 85.976,588.97 85.97,588.82C85.979,588.601 85.891,588.389 85.73,588.24C85.443,588.023 85.06,587.977 84.73,588.12C84.615,588.184 84.516,588.273 84.44,588.38C84.362,588.492 84.304,588.617 84.27,588.75C84.25,588.889 84.25,589.031 84.27,589.17L83.36,589.17C83.368,588.91 83.419,588.653 83.51,588.41C83.597,588.19 83.722,587.987 83.88,587.81C84.041,587.635 84.239,587.498 84.46,587.41C84.7,587.306 84.959,587.255 85.22,587.26C85.437,587.263 85.652,587.297 85.86,587.36C86.064,587.421 86.257,587.515 86.43,587.64C86.599,587.763 86.736,587.924 86.83,588.11C86.94,588.309 86.995,588.533 86.99,588.76C86.996,589.021 86.926,589.278 86.79,589.5C86.658,589.726 86.442,589.891 86.19,589.96C86.495,590.011 86.766,590.184 86.94,590.44C87.256,590.931 87.297,591.551 87.05,592.08C86.946,592.286 86.8,592.466 86.62,592.61C86.433,592.762 86.22,592.877 85.99,592.95C85.741,593.031 85.481,593.072 85.22,593.07C84.93,593.079 84.642,593.031 84.37,592.93C84.141,592.846 83.933,592.713 83.76,592.54C83.597,592.36 83.471,592.149 83.39,591.92C83.305,591.661 83.258,591.392 83.25,591.12L84.17,591.12C84.147,591.424 84.236,591.727 84.42,591.97C84.621,592.199 84.916,592.325 85.22,592.31C85.5,592.323 85.775,592.23 85.99,592.05C86.2,591.863 86.314,591.591 86.3,591.31C86.305,591.128 86.26,590.948 86.17,590.79C86.084,590.665 85.967,590.565 85.83,590.5C85.684,590.427 85.523,590.386 85.36,590.38C85.184,590.365 85.006,590.365 84.83,590.38L84.73,589.67Z" style="fill:white;fill-rule:nonzero;"/>
    </g>
    <g transform="matrix(1,0,0,1,0.14,0.14)">
        <path d="M115.3,591.62L114.58,591.62L114.58,593L113.71,593L113.71,591.67L111.31,591.67L111.31,590.77L113.71,587.4L114.58,587.4L114.58,590.95L115.3,590.95L115.3,591.62ZM112,590.9L113.69,590.9L113.69,588.44L112,590.9Z" style="fill:white;fill-rule:nonzero;"/>
    </g>
    <g transform="matrix(1,0,0,1,0.14,0.14)">
        <path d="M140.58,587.35L143.48,587.35L143.48,588.16L141.27,588.16L140.98,589.59C141.109,589.447 141.27,589.337 141.45,589.27C141.632,589.2 141.825,589.163 142.02,589.16C142.273,589.159 142.524,589.207 142.76,589.3C142.971,589.385 143.16,589.519 143.31,589.69C143.465,589.863 143.581,590.068 143.65,590.29C143.731,590.528 143.772,590.778 143.77,591.03C143.767,591.267 143.73,591.503 143.66,591.73C143.585,591.965 143.47,592.185 143.32,592.38C142.955,592.822 142.402,593.067 141.83,593.04C141.576,593.044 141.324,593.01 141.08,592.94C140.854,592.871 140.644,592.759 140.46,592.61C140.286,592.463 140.143,592.283 140.04,592.08C139.933,591.848 139.875,591.596 139.87,591.34L140.78,591.34C140.789,591.607 140.904,591.859 141.1,592.04C141.299,592.211 141.558,592.298 141.82,592.28C141.985,592.285 142.148,592.254 142.3,592.19C142.432,592.132 142.546,592.038 142.63,591.92C142.714,591.804 142.772,591.671 142.8,591.53C142.841,591.373 142.861,591.212 142.86,591.05C142.862,590.9 142.838,590.752 142.79,590.61C142.755,590.471 142.69,590.342 142.6,590.23C142.51,590.123 142.397,590.037 142.27,589.98C142.12,589.91 141.956,589.875 141.79,589.88C141.605,589.881 141.421,589.918 141.25,589.99C141.078,590.065 140.947,590.211 140.89,590.39L140,590.39L140.58,587.35Z" style="fill:white;fill-rule:nonzero;"/>
    </g>
    <g transform="matrix(1,0,0,1,0.14,0.14)">
        <path d="M171,588.76C170.99,588.554 170.904,588.358 170.76,588.21C170.608,588.062 170.402,587.983 170.19,587.99C170.041,587.989 169.893,588.023 169.76,588.09C169.642,588.149 169.536,588.23 169.45,588.33C169.37,588.438 169.302,588.556 169.25,588.68C169.2,588.813 169.159,588.95 169.13,589.09C169.13,589.24 169.13,589.38 169.06,589.52L169.06,589.92C169.174,589.704 169.352,589.529 169.57,589.42C169.787,589.312 170.027,589.257 170.27,589.26C170.527,589.258 170.781,589.306 171.02,589.4C171.229,589.495 171.416,589.631 171.57,589.8C171.725,589.975 171.844,590.179 171.92,590.4C172.002,590.638 172.042,590.888 172.04,591.14C172.043,591.399 171.999,591.657 171.91,591.9C171.821,592.125 171.692,592.331 171.53,592.51C171.361,592.68 171.16,592.816 170.94,592.91C170.699,593.008 170.44,593.056 170.18,593.05C169.833,593.062 169.489,592.986 169.18,592.83C168.921,592.678 168.707,592.461 168.56,592.2C168.399,591.912 168.29,591.597 168.24,591.27C168.178,590.89 168.148,590.505 168.15,590.12C168.153,589.784 168.19,589.449 168.26,589.12C168.326,588.789 168.448,588.471 168.62,588.18C168.777,587.903 169.001,587.67 169.27,587.5C169.569,587.312 169.917,587.218 170.27,587.23C170.486,587.229 170.7,587.27 170.9,587.35C171.091,587.419 171.268,587.525 171.42,587.66C171.578,587.792 171.708,587.956 171.8,588.14C171.895,588.334 171.95,588.545 171.96,588.76L171,588.76ZM170.12,592.3C170.273,592.305 170.424,592.271 170.56,592.2C170.68,592.139 170.783,592.05 170.86,591.94C170.95,591.833 171.015,591.706 171.05,591.57C171.09,591.427 171.11,591.279 171.11,591.13C171.11,590.985 171.09,590.84 171.05,590.7C171.015,590.567 170.95,590.444 170.86,590.34C170.782,590.233 170.679,590.148 170.56,590.09C170.424,590.019 170.273,589.985 170.12,589.99C169.972,589.988 169.825,590.018 169.69,590.08C169.567,590.141 169.458,590.226 169.37,590.33C169.285,590.438 169.221,590.559 169.18,590.69C169.137,590.833 169.113,590.981 169.11,591.13C169.111,591.279 169.135,591.428 169.18,591.57C169.221,591.707 169.285,591.835 169.37,591.95C169.457,592.058 169.566,592.147 169.69,592.21C169.816,592.267 169.952,592.298 170.09,592.3L170.12,592.3Z" style="fill:white;fill-rule:nonzero;"/>
    </g>
    <g transform="matrix(1,0,0,1,0.14,0.14)">
        <path d="M196.57,587.35L200.41,587.35L200.41,588.11C200.119,588.423 199.852,588.757 199.61,589.11C199.367,589.467 199.156,589.845 198.98,590.24C198.793,590.645 198.646,591.067 198.54,591.5C198.427,591.966 198.354,592.441 198.32,592.92L197.32,592.92C197.352,592.477 197.429,592.038 197.55,591.61C197.669,591.178 197.823,590.757 198.01,590.35C198.203,589.945 198.423,589.554 198.67,589.18C198.918,588.813 199.188,588.463 199.48,588.13L196.57,588.13L196.57,587.35Z" style="fill:white;fill-rule:nonzero;"/>
    </g>
    <g transform="matrix(1,0,0,1,0.14,0.14)">
        <path d="M226.86,593.06C226.595,593.062 226.332,593.022 226.08,592.94C225.849,592.872 225.634,592.756 225.45,592.6C225.252,592.441 225.097,592.235 225,592C224.898,591.767 224.847,591.515 224.85,591.26C224.84,590.942 224.935,590.629 225.12,590.37C225.309,590.13 225.573,589.961 225.87,589.89C225.633,589.802 225.428,589.645 225.28,589.44C225.144,589.229 225.074,588.981 225.08,588.73C225.057,588.309 225.222,587.898 225.53,587.61C226.305,587.065 227.345,587.065 228.12,587.61C228.428,587.898 228.593,588.309 228.57,588.73C228.576,588.981 228.506,589.229 228.37,589.44C228.222,589.645 228.017,589.802 227.78,589.89C228.077,589.961 228.341,590.13 228.53,590.37C228.715,590.629 228.81,590.942 228.8,591.26C228.803,591.515 228.752,591.767 228.65,592C228.559,592.216 228.418,592.408 228.24,592.56C228.056,592.716 227.841,592.832 227.61,592.9C227.37,592.992 227.117,593.046 226.86,593.06ZM226.86,592.34C227.141,592.349 227.416,592.253 227.63,592.07C227.836,591.869 227.946,591.588 227.93,591.3C227.946,591.027 227.835,590.761 227.63,590.58C227.18,590.236 226.55,590.236 226.1,590.58C225.895,590.761 225.784,591.027 225.8,591.3C225.784,591.588 225.894,591.869 226.1,592.07C226.311,592.251 226.582,592.348 226.86,592.34ZM226.86,587.95C226.632,587.946 226.41,588.028 226.24,588.18C225.902,588.521 225.902,589.079 226.24,589.42C226.608,589.722 227.142,589.722 227.51,589.42C227.848,589.079 227.848,588.521 227.51,588.18C227.324,588.04 227.092,587.976 226.86,588L226.86,587.95Z" style="fill:white;fill-rule:nonzero;"/>
    </g>
    <g transform="matrix(1,0,0,1,0.14,0.14)">
        <path d="M254.41,591.53C254.42,591.739 254.505,591.938 254.65,592.09C254.808,592.234 255.017,592.309 255.23,592.3C255.44,592.313 255.648,592.245 255.81,592.11C255.959,591.975 256.076,591.807 256.15,591.62C256.238,591.42 256.295,591.207 256.32,590.99C256.32,590.77 256.37,590.57 256.39,590.38C256.272,590.589 256.099,590.762 255.89,590.88C255.67,590.992 255.427,591.051 255.18,591.05C254.933,591.052 254.688,591.004 254.46,590.91C254.249,590.823 254.059,590.693 253.9,590.53C253.744,590.358 253.621,590.158 253.54,589.94C253.453,589.689 253.409,589.425 253.41,589.16C253.411,588.901 253.455,588.644 253.54,588.4C253.625,588.174 253.754,587.966 253.92,587.79C254.09,587.612 254.299,587.475 254.53,587.39C254.787,587.287 255.063,587.236 255.34,587.24C255.688,587.225 256.034,587.304 256.34,587.47C256.597,587.617 256.806,587.836 256.94,588.1C257.098,588.389 257.203,588.704 257.25,589.03C257.312,589.41 257.342,589.795 257.34,590.18C257.337,590.516 257.3,590.851 257.23,591.18C257.163,591.507 257.045,591.821 256.88,592.11C256.716,592.388 256.491,592.624 256.22,592.8C255.921,592.986 255.572,593.077 255.22,593.06C255.002,593.065 254.784,593.028 254.58,592.95C254.39,592.878 254.214,592.773 254.06,592.64C253.738,592.359 253.546,591.957 253.53,591.53L254.41,591.53ZM255.28,587.99C255.131,587.991 254.984,588.025 254.85,588.09C254.731,588.148 254.628,588.233 254.55,588.34C254.468,588.452 254.407,588.577 254.37,588.71C254.33,588.85 254.31,588.995 254.31,589.14C254.309,589.289 254.329,589.437 254.37,589.58C254.405,589.717 254.466,589.846 254.55,589.96C254.633,590.064 254.735,590.153 254.85,590.22C254.984,590.285 255.131,590.319 255.28,590.32C255.436,590.325 255.591,590.291 255.73,590.22C255.855,590.159 255.965,590.07 256.05,589.96C256.133,589.844 256.197,589.716 256.24,589.58C256.281,589.437 256.301,589.289 256.3,589.14C256.3,588.995 256.28,588.85 256.24,588.71C256.195,588.578 256.131,588.453 256.05,588.34C255.962,588.236 255.853,588.151 255.73,588.09C255.588,588.028 255.435,587.997 255.28,588L255.28,587.99Z" style="fill:white;fill-rule:nonzero;"/>
    </g>
    <g transform="matrix(1,0,0,1,0.14,0.14)">
        <path d="M278.65,588.28C278.836,588.295 279.024,588.295 279.21,588.28C279.379,588.246 279.544,588.193 279.7,588.12C279.844,588.049 279.973,587.95 280.08,587.83C280.187,587.708 280.259,587.559 280.29,587.4L281,587.4L281,593L280,593L280,589L278.62,589L278.65,588.28Z" style="fill:white;fill-rule:nonzero;"/>
    </g>
    <g transform="matrix(1,0,0,1,0.14,0.14)">
        <path d="M284.91,587.23C285.265,587.215 285.615,587.313 285.91,587.51C286.163,587.693 286.366,587.938 286.5,588.22C286.646,588.516 286.743,588.833 286.79,589.16C286.886,589.823 286.886,590.497 286.79,591.16C286.743,591.487 286.646,591.804 286.5,592.1C286.363,592.381 286.161,592.624 285.91,592.81C285.614,593.004 285.263,593.098 284.91,593.08C284.557,593.096 284.207,593.002 283.91,592.81C283.659,592.624 283.457,592.381 283.32,592.1C283.174,591.804 283.077,591.487 283.03,591.16C282.934,590.497 282.934,589.823 283.03,589.16C283.077,588.833 283.174,588.516 283.32,588.22C283.454,587.938 283.657,587.693 283.91,587.51C284.206,587.315 284.556,587.217 284.91,587.23ZM284.91,592.3C285.089,592.308 285.265,592.247 285.4,592.13C285.544,592.006 285.654,591.848 285.72,591.67C285.804,591.448 285.857,591.216 285.88,590.98C285.947,590.429 285.947,589.871 285.88,589.32C285.858,589.087 285.805,588.858 285.72,588.64C285.657,588.458 285.546,588.296 285.4,588.17C285.265,588.05 285.09,587.986 284.91,587.99C284.723,587.984 284.541,588.048 284.4,588.17C284.26,588.299 284.154,588.46 284.09,588.64C284.01,588.86 283.957,589.088 283.93,589.32C283.863,589.871 283.863,590.429 283.93,590.98C283.958,591.215 284.011,591.447 284.09,591.67C284.156,591.845 284.262,592.003 284.4,592.13C284.542,592.249 284.725,592.31 284.91,592.3Z" style="fill:white;fill-rule:nonzero;"/>
    </g>
    <g transform="matrix(1,0,0,1,0.14,0.14)">
        <path d="M307.81,588.28C307.996,588.295 308.184,588.295 308.37,588.28C308.539,588.245 308.703,588.191 308.86,588.12C309.003,588.046 309.131,587.948 309.24,587.83C309.344,587.707 309.413,587.559 309.44,587.4L310.19,587.4L310.19,593L309.19,593L309.19,589L307.81,589L307.81,588.28Z" style="fill:white;fill-rule:nonzero;"/>
    </g>
    <g transform="matrix(1,0,0,1,0.14,0.14)">
        <path d="M312.26,588.28C312.446,588.295 312.634,588.295 312.82,588.28C312.989,588.246 313.154,588.193 313.31,588.12C313.454,588.049 313.583,587.95 313.69,587.83C313.794,587.707 313.863,587.559 313.89,587.4L314.64,587.4L314.64,593L313.64,593L313.64,589L312.26,589L312.26,588.28Z" style="fill:white;fill-rule:nonzero;"/>
    </g>
    <g transform="matrix(1,0,0,1,0.14,0.14)">
        <path d="M335.34,588.28C335.526,588.296 335.714,588.296 335.9,588.28C336.072,588.246 336.24,588.193 336.4,588.12C336.54,588.046 336.665,587.948 336.77,587.83C336.881,587.71 336.954,587.561 336.98,587.4L337.72,587.4L337.72,593L336.72,593L336.72,589L335.34,589L335.34,588.28Z" style="fill:white;fill-rule:nonzero;"/>
    </g>
    <g transform="matrix(1,0,0,1,0.14,0.14)">
        <path d="M343.51,593L339.68,593C339.68,592.57 339.797,592.148 340.02,591.78C340.257,591.423 340.563,591.117 340.92,590.88L341.49,590.49C341.68,590.37 341.86,590.237 342.03,590.09C342.188,589.953 342.326,589.795 342.44,589.62C342.548,589.446 342.607,589.245 342.61,589.04C342.623,588.93 342.623,588.82 342.61,588.71C342.587,588.595 342.539,588.486 342.47,588.39C342.397,588.285 342.297,588.202 342.18,588.15C342.032,588.074 341.867,588.036 341.7,588.04C341.543,588.036 341.387,588.074 341.25,588.15C341.129,588.224 341.03,588.327 340.96,588.45C340.887,588.589 340.833,588.737 340.8,588.89C340.769,589.075 340.749,589.262 340.74,589.45L339.83,589.45C339.827,589.159 339.868,588.869 339.95,588.59C340.028,588.336 340.157,588.101 340.33,587.9C340.494,587.707 340.699,587.553 340.93,587.45C341.191,587.335 341.474,587.277 341.76,587.28C342.056,587.272 342.349,587.33 342.62,587.45C342.831,587.554 343.018,587.7 343.17,587.88C343.306,588.041 343.408,588.228 343.47,588.43C343.528,588.618 343.558,588.813 343.56,589.01C343.563,589.218 343.529,589.424 343.46,589.62C343.386,589.797 343.292,589.965 343.18,590.12C343.057,590.269 342.923,590.41 342.78,590.54L342.31,590.9L341.83,591.22C341.67,591.32 341.52,591.42 341.39,591.52C341.259,591.614 341.138,591.721 341.03,591.84C340.934,591.939 340.863,592.059 340.82,592.19L343.55,592.19L343.51,593Z" style="fill:white;fill-rule:nonzero;"/>
    </g>
    <g transform="matrix(1,0,0,1,0.14,0.14)">
        <path d="M363.69,588.28C363.876,588.295 364.064,588.295 364.25,588.28C364.419,588.246 364.584,588.193 364.74,588.12C364.884,588.049 365.013,587.95 365.12,587.83C365.224,587.707 365.293,587.559 365.32,587.4L366.07,587.4L366.07,593L365.07,593L365.07,589L363.69,589L363.69,588.28Z" style="fill:white;fill-rule:nonzero;"/>
    </g>
    <g transform="matrix(1,0,0,1,0.14,0.14)">
        <path d="M369.54,589.67L369.99,589.67C370.129,589.643 370.264,589.596 370.39,589.53C370.51,589.464 370.61,589.367 370.68,589.25C370.755,589.119 370.793,588.971 370.79,588.82C370.795,588.6 370.703,588.388 370.54,588.24C370.364,588.091 370.14,588.013 369.91,588.02C369.767,588.019 369.626,588.053 369.5,588.12C369.38,588.181 369.277,588.27 369.2,588.38C369.126,588.494 369.068,588.619 369.03,588.75C369.01,588.889 369.01,589.031 369.03,589.17L368.12,589.17C368.128,588.91 368.179,588.653 368.27,588.41C368.357,588.187 368.486,587.984 368.65,587.81C368.805,587.633 369.001,587.496 369.22,587.41C369.46,587.307 369.719,587.256 369.98,587.26C370.197,587.263 370.412,587.297 370.62,587.36C370.824,587.421 371.017,587.515 371.19,587.64C371.359,587.765 371.499,587.925 371.6,588.11C371.702,588.311 371.754,588.534 371.75,588.76C371.754,589.019 371.688,589.275 371.56,589.5C371.421,589.72 371.208,589.883 370.96,589.96C371.263,590.009 371.532,590.183 371.7,590.44C372.016,590.931 372.057,591.551 371.81,592.08C371.71,592.288 371.563,592.469 371.38,592.61C371.193,592.762 370.98,592.877 370.75,592.95C370.505,593.03 370.248,593.071 369.99,593.07C369.697,593.079 369.405,593.032 369.13,592.93C368.902,592.848 368.697,592.715 368.53,592.54C368.36,592.363 368.23,592.152 368.15,591.92C368.064,591.662 368.02,591.392 368.02,591.12L368.93,591.12C368.907,591.424 368.996,591.727 369.18,591.97C369.383,592.202 369.682,592.328 369.99,592.31C370.267,592.322 370.539,592.229 370.75,592.05C371.083,591.718 371.156,591.202 370.93,590.79C370.848,590.666 370.734,590.566 370.6,590.5C370.453,590.429 370.293,590.388 370.13,590.38C369.95,590.365 369.77,590.365 369.59,590.38L369.54,589.67Z" style="fill:white;fill-rule:nonzero;"/>
    </g>
    <g transform="matrix(1,0,0,1,0.14,0.14)">
        <path d="M391.9,588.28C392.086,588.295 392.274,588.295 392.46,588.28C392.632,588.245 392.8,588.191 392.96,588.12C393.1,588.046 393.225,587.948 393.33,587.83C393.437,587.708 393.509,587.559 393.54,587.4L394.28,587.4L394.28,593L393.28,593L393.28,589L391.9,589L391.9,588.28Z" style="fill:white;fill-rule:nonzero;"/>
    </g>
    <g transform="matrix(1,0,0,1,0.14,0.14)">
        <path d="M400.11,591.62L399.39,591.62L399.39,593L398.52,593L398.52,591.67L396.12,591.67L396.12,590.77L398.52,587.4L399.39,587.4L399.39,590.95L400.11,590.95L400.11,591.62ZM396.83,590.9L398.52,590.9L398.52,588.44L396.83,590.9Z" style="fill:white;fill-rule:nonzero;"/>
    </g>
    <g transform="matrix(1,0,0,1,0.14,0.14)">
        <path d="M420.38,588.28C420.566,588.296 420.754,588.296 420.94,588.28C421.112,588.246 421.28,588.193 421.44,588.12C421.58,588.046 421.705,587.948 421.81,587.83C421.921,587.71 421.994,587.561 422.02,587.4L422.76,587.4L422.76,593L421.76,593L421.76,589L420.38,589L420.38,588.28Z" style="fill:white;fill-rule:nonzero;"/>
    </g>
    <g transform="matrix(1,0,0,1,0.14,0.14)">
        <path d="M425.4,587.35L428.3,587.35L428.3,588.16L426.08,588.16L425.79,589.59C425.919,589.447 426.08,589.337 426.26,589.27C426.442,589.2 426.635,589.163 426.83,589.16C427.084,589.157 427.335,589.205 427.57,589.3C427.783,589.383 427.972,589.517 428.12,589.69C428.275,589.865 428.394,590.069 428.47,590.29C428.543,590.53 428.58,590.779 428.58,591.03C428.582,591.268 428.545,591.504 428.47,591.73C428.399,591.966 428.284,592.187 428.13,592.38C427.96,592.578 427.753,592.741 427.52,592.86C427.245,592.988 426.943,593.05 426.64,593.04C426.386,593.044 426.134,593.01 425.89,592.94C425.664,592.871 425.454,592.759 425.27,592.61C425.096,592.463 424.953,592.283 424.85,592.08C424.743,591.848 424.685,591.596 424.68,591.34L425.59,591.34C425.622,591.866 426.063,592.281 426.59,592.28C426.758,592.284 426.925,592.253 427.08,592.19C427.208,592.128 427.318,592.036 427.4,591.92C427.484,591.802 427.545,591.67 427.58,591.53C427.612,591.372 427.629,591.211 427.63,591.05C427.632,590.9 427.608,590.752 427.56,590.61C427.525,590.471 427.46,590.342 427.37,590.23C427.282,590.121 427.169,590.035 427.04,589.98C426.891,589.907 426.726,589.873 426.56,589.88C426.375,589.881 426.191,589.918 426.02,589.99C425.848,590.065 425.717,590.211 425.66,590.39L424.75,590.39L425.4,587.35Z" style="fill:white;fill-rule:nonzero;"/>
    </g>
    <g transform="matrix(1,0,0,1,0.14,0.14)">
        <path d="M448.73,588.28C448.916,588.295 449.104,588.295 449.29,588.28C449.459,588.246 449.624,588.193 449.78,588.12C449.924,588.049 450.053,587.95 450.16,587.83C450.264,587.707 450.333,587.559 450.36,587.4L451.11,587.4L451.11,593L450.11,593L450.11,589L448.73,589L448.73,588.28Z" style="fill:white;fill-rule:nonzero;"/>
    </g>
    <g transform="matrix(1,0,0,1,0.14,0.14)">
        <path d="M455.92,588.76C455.91,588.554 455.824,588.358 455.68,588.21C455.524,588.062 455.315,587.982 455.1,587.99C454.82,587.996 454.555,588.119 454.37,588.33C454.286,588.436 454.218,588.554 454.17,588.68C454.12,588.813 454.079,588.95 454.05,589.09C454.018,589.232 453.994,589.375 453.98,589.52L453.98,589.92C454.094,589.704 454.272,589.529 454.49,589.42C454.707,589.311 454.947,589.256 455.19,589.26C455.444,589.257 455.695,589.305 455.93,589.4C456.143,589.492 456.334,589.628 456.49,589.8C456.645,589.975 456.764,590.179 456.84,590.4C456.922,590.638 456.962,590.888 456.96,591.14C456.958,591.399 456.914,591.655 456.83,591.9C456.741,592.125 456.612,592.331 456.45,592.51C456.277,592.68 456.074,592.816 455.85,592.91C455.609,593.009 455.35,593.057 455.09,593.05C454.743,593.065 454.399,592.989 454.09,592.83C453.831,592.676 453.614,592.459 453.46,592.2C453.302,591.911 453.197,591.596 453.15,591.27C453.088,590.89 453.058,590.505 453.06,590.12C453.063,589.784 453.1,589.449 453.17,589.12C453.236,588.789 453.358,588.471 453.53,588.18C453.687,587.903 453.911,587.67 454.18,587.5C454.478,587.311 454.827,587.216 455.18,587.23C455.605,587.231 456.017,587.383 456.34,587.66C456.495,587.793 456.621,587.956 456.71,588.14C456.81,588.332 456.865,588.544 456.87,588.76L455.92,588.76ZM455,592.3C455.15,592.306 455.298,592.272 455.43,592.2C455.554,592.142 455.661,592.052 455.74,591.94C455.823,591.828 455.887,591.703 455.93,591.57C455.97,591.427 455.99,591.279 455.99,591.13C455.99,590.985 455.97,590.84 455.93,590.7C455.887,590.57 455.823,590.449 455.74,590.34C455.661,590.231 455.554,590.144 455.43,590.09C455.298,590.018 455.15,589.984 455,589.99C454.848,589.986 454.698,590.017 454.56,590.08C454.317,590.206 454.136,590.427 454.06,590.69C454.012,590.832 453.988,590.98 453.99,591.13C453.986,591.28 454.01,591.429 454.06,591.57C454.095,591.709 454.16,591.838 454.25,591.95C454.335,592.057 454.44,592.145 454.56,592.21C454.698,592.273 454.848,592.304 455,592.3Z" style="fill:white;fill-rule:nonzero;"/>
    </g>
    <g transform="matrix(1,0,0,1,0.14,0.14)">
        <path d="M477.08,588.28C477.266,588.295 477.454,588.295 477.64,588.28C477.809,588.245 477.973,588.191 478.13,588.12C478.273,588.046 478.401,587.948 478.51,587.83C478.614,587.707 478.683,587.559 478.71,587.4L479.46,587.4L479.46,593L478.46,593L478.46,589L477.09,589L477.08,588.28Z" style="fill:white;fill-rule:nonzero;"/>
    </g>
    <g transform="matrix(1,0,0,1,0.14,0.14)">
        <path d="M481.38,587.35L485.22,587.35L485.22,588.11C484.932,588.426 484.665,588.76 484.42,589.11C484.177,589.467 483.966,589.845 483.79,590.24C483.608,590.647 483.46,591.068 483.35,591.5C483.237,591.966 483.164,592.441 483.13,592.92L482.13,592.92C482.162,592.477 482.239,592.038 482.36,591.61C482.479,591.178 482.633,590.757 482.82,590.35C483.013,589.945 483.233,589.554 483.48,589.18C483.728,588.813 483.998,588.463 484.29,588.13L481.38,588.13L481.38,587.35Z" style="fill:white;fill-rule:nonzero;"/>
    </g>
    <g transform="matrix(1,0,0,1,0.14,0.14)">
        <path d="M505.42,588.28C505.606,588.296 505.794,588.296 505.98,588.28C506.152,588.246 506.32,588.193 506.48,588.12C506.62,588.046 506.745,587.948 506.85,587.83C506.957,587.708 507.029,587.559 507.06,587.4L507.8,587.4L507.8,593L506.8,593L506.8,589L505.42,589L505.42,588.28Z" style="fill:white;fill-rule:nonzero;"/>
    </g>
    <g transform="matrix(1,0,0,1,0.14,0.14)">
        <path d="M511.68,593.06C511.412,593.063 511.145,593.023 510.89,592.94C510.66,592.867 510.447,592.752 510.26,592.6C510.084,592.445 509.945,592.254 509.85,592.04C509.748,591.807 509.697,591.555 509.7,591.3C509.688,590.98 509.787,590.665 509.98,590.41C510.163,590.169 510.425,589.999 510.72,589.93C510.484,589.844 510.282,589.687 510.14,589.48C509.996,589.272 509.923,589.023 509.93,588.77C509.907,588.349 510.072,587.938 510.38,587.65C510.748,587.358 511.211,587.212 511.68,587.24C512.146,587.211 512.606,587.357 512.97,587.65C513.278,587.938 513.443,588.349 513.42,588.77C513.426,589.021 513.356,589.269 513.22,589.48C513.074,589.687 512.868,589.844 512.63,589.93C512.927,590.001 513.191,590.17 513.38,590.41C513.569,590.668 513.667,590.981 513.66,591.3C513.663,591.555 513.612,591.807 513.51,592.04C513.412,592.255 513.268,592.446 513.09,592.6C512.908,592.754 512.697,592.87 512.47,592.94C512.215,593.021 511.948,593.062 511.68,593.06ZM511.68,592.34C511.958,592.348 512.229,592.251 512.44,592.07C512.646,591.869 512.756,591.588 512.74,591.3C512.756,591.027 512.645,590.761 512.44,590.58C512.228,590.402 511.957,590.31 511.68,590.32C511.403,590.306 511.13,590.399 510.92,590.58C510.708,590.757 510.593,591.025 510.61,591.3C510.597,591.589 510.71,591.87 510.92,592.07C511.129,592.254 511.402,592.35 511.68,592.34ZM511.68,587.95C511.449,587.945 511.224,588.027 511.05,588.18C510.727,588.527 510.727,589.073 511.05,589.42C511.418,589.722 511.952,589.722 512.32,589.42C512.658,589.079 512.658,588.521 512.32,588.18C512.137,588.041 511.908,587.977 511.68,588L511.68,587.95Z" style="fill:white;fill-rule:nonzero;"/>
    </g>
    <g transform="matrix(1,0,0,1,0.14,0.14)">
        <path d="M533.9,588.28C534.09,588.295 534.28,588.295 534.47,588.28C534.639,588.245 534.803,588.191 534.96,588.12C535.1,588.046 535.225,587.948 535.33,587.83C535.441,587.71 535.514,587.561 535.54,587.4L536.28,587.4L536.28,593L535.28,593L535.28,589L533.9,589L533.9,588.28Z" style="fill:white;fill-rule:nonzero;"/>
    </g>
    <g transform="matrix(1,0,0,1,0.14,0.14)">
        <path d="M539.22,591.53C539.229,591.742 539.318,591.942 539.47,592.09C539.623,592.235 539.829,592.311 540.04,592.3C540.253,592.311 540.463,592.244 540.63,592.11C540.776,591.972 540.892,591.805 540.97,591.62C541.05,591.418 541.104,591.206 541.13,590.99C541.13,590.77 541.13,590.57 541.2,590.38C541.082,590.589 540.909,590.762 540.7,590.88C540.481,590.993 540.237,591.052 539.99,591.05C539.743,591.051 539.499,591.003 539.27,590.91C539.059,590.823 538.869,590.693 538.71,590.53C538.554,590.358 538.431,590.158 538.35,589.94C538.267,589.689 538.226,589.425 538.23,589.16C538.228,588.902 538.268,588.645 538.35,588.4C538.435,588.174 538.564,587.966 538.73,587.79C538.9,587.612 539.109,587.475 539.34,587.39C539.597,587.287 539.873,587.236 540.15,587.24C540.498,587.223 540.844,587.303 541.15,587.47C541.408,587.619 541.619,587.838 541.76,588.1C541.915,588.39 542.016,588.705 542.06,589.03C542.122,589.41 542.152,589.795 542.15,590.18C542.152,590.516 542.115,590.852 542.04,591.18C541.973,591.507 541.855,591.821 541.69,592.11C541.527,592.385 541.305,592.621 541.04,592.8C540.74,592.984 540.392,593.075 540.04,593.06C539.825,593.066 539.611,593.028 539.41,592.95C539.215,592.881 539.036,592.776 538.88,592.64C538.728,592.505 538.602,592.342 538.51,592.16C538.41,591.965 538.356,591.749 538.35,591.53L539.22,591.53ZM540.09,587.99C539.941,587.991 539.794,588.025 539.66,588.09C539.541,588.148 539.438,588.233 539.36,588.34C539.278,588.452 539.217,588.577 539.18,588.71C539.14,588.85 539.12,588.995 539.12,589.14C539.119,589.289 539.139,589.437 539.18,589.58C539.215,589.717 539.276,589.846 539.36,589.96C539.443,590.064 539.545,590.153 539.66,590.22C539.794,590.285 539.941,590.319 540.09,590.32C540.246,590.327 540.402,590.293 540.54,590.22C540.667,590.162 540.777,590.072 540.86,589.96C540.947,589.846 541.011,589.718 541.05,589.58C541.091,589.437 541.111,589.289 541.11,589.14C541.11,588.995 541.09,588.85 541.05,588.71C541.009,588.576 540.945,588.451 540.86,588.34C540.774,588.233 540.665,588.148 540.54,588.09C540.399,588.026 540.245,587.995 540.09,588L540.09,587.99Z" style="fill:white;fill-rule:nonzero;"/>
    </g>
    <g transform="matrix(1,0,0,1,0.14,0.14)">
        <path d="M566.24,593L562.41,593C562.405,592.569 562.523,592.146 562.75,591.78C562.979,591.42 563.283,591.113 563.64,590.88L564.21,590.49C564.403,590.371 564.587,590.237 564.76,590.09C564.915,589.953 565.05,589.795 565.16,589.62C565.275,589.449 565.335,589.246 565.33,589.04C565.339,588.93 565.339,588.82 565.33,588.71C565.298,588.598 565.251,588.49 565.19,588.39C565.115,588.287 565.015,588.204 564.9,588.15C564.752,588.074 564.587,588.036 564.42,588.04C564.26,588.036 564.101,588.074 563.96,588.15C563.842,588.224 563.746,588.328 563.68,588.45C563.599,588.585 563.544,588.734 563.52,588.89C563.479,589.074 563.459,589.262 563.46,589.45L562.54,589.45C562.535,589.158 562.579,588.867 562.67,588.59C562.74,588.335 562.867,588.099 563.04,587.9C563.206,587.709 563.41,587.556 563.64,587.45C564.18,587.223 564.79,587.223 565.33,587.45C565.546,587.551 565.737,587.698 565.89,587.88C566.026,588.041 566.128,588.228 566.19,588.43C566.245,588.618 566.272,588.814 566.27,589.01C566.273,589.218 566.239,589.424 566.17,589.62C566.1,589.799 566.006,589.967 565.89,590.12C565.77,590.272 565.636,590.413 565.49,590.54L565.03,590.9L564.54,591.22L564.1,591.52C563.971,591.616 563.851,591.723 563.74,591.84C563.644,591.937 563.575,592.058 563.54,592.19L566.27,592.19L566.24,593Z" style="fill:white;fill-rule:nonzero;"/>
    </g>
    <g transform="matrix(1,0,0,1,0.14,0.14)">
        <path d="M568.77,587.23C569.124,587.217 569.474,587.315 569.77,587.51C570.023,587.693 570.226,587.938 570.36,588.22C570.506,588.516 570.603,588.833 570.65,589.16C570.746,589.823 570.746,590.497 570.65,591.16C570.603,591.487 570.506,591.804 570.36,592.1C570.223,592.381 570.021,592.624 569.77,592.81C569.473,593.002 569.123,593.096 568.77,593.08C568.417,593.098 568.066,593.004 567.77,592.81C567.519,592.624 567.317,592.381 567.18,592.1C567.034,591.804 566.937,591.487 566.89,591.16C566.794,590.497 566.794,589.823 566.89,589.16C566.937,588.833 567.034,588.516 567.18,588.22C567.314,587.938 567.517,587.693 567.77,587.51C568.065,587.313 568.415,587.215 568.77,587.23ZM568.77,592.3C568.952,592.31 569.131,592.249 569.27,592.13C569.411,592.004 569.52,591.846 569.59,591.67C569.674,591.448 569.727,591.216 569.75,590.98C569.817,590.429 569.817,589.871 569.75,589.32C569.728,589.087 569.675,588.858 569.59,588.64C569.523,588.46 569.413,588.298 569.27,588.17C569.133,588.048 568.954,587.983 568.77,587.99C568.587,587.985 568.408,588.049 568.27,588.17C568.13,588.299 568.024,588.46 567.96,588.64C567.875,588.858 567.822,589.087 567.8,589.32C567.733,589.871 567.733,590.429 567.8,590.98C567.823,591.216 567.876,591.448 567.96,591.67C568.026,591.845 568.132,592.003 568.27,592.13C568.409,592.248 568.588,592.309 568.77,592.3Z" style="fill:white;fill-rule:nonzero;"/>
    </g>
    <g transform="matrix(1,0,0,1,0.14,0.14)">
        <path d="M595.39,593L591.57,593C591.561,592.57 591.676,592.147 591.9,591.78C592.137,591.423 592.443,591.117 592.8,590.88L593.37,590.49C593.56,590.37 593.74,590.237 593.91,590.09C594.068,589.953 594.206,589.795 594.32,589.62C594.428,589.446 594.487,589.245 594.49,589.04C594.503,588.93 594.503,588.82 594.49,588.71C594.467,588.595 594.419,588.486 594.35,588.39C594.277,588.285 594.177,588.202 594.06,588.15C593.912,588.074 593.747,588.036 593.58,588.04C593.423,588.036 593.267,588.074 593.13,588.15C593.009,588.224 592.91,588.327 592.84,588.45C592.767,588.589 592.713,588.737 592.68,588.89C592.649,589.075 592.629,589.262 592.62,589.45L591.71,589.45C591.707,589.159 591.748,588.869 591.83,588.59C591.908,588.336 592.037,588.101 592.21,587.9C592.374,587.707 592.579,587.553 592.81,587.45C593.071,587.335 593.354,587.277 593.64,587.28C593.936,587.272 594.229,587.33 594.5,587.45C594.713,587.551 594.901,587.698 595.05,587.88C595.186,588.041 595.288,588.228 595.35,588.43C595.408,588.618 595.438,588.813 595.44,589.01C595.443,589.218 595.409,589.424 595.34,589.62C595.266,589.797 595.172,589.965 595.06,590.12C594.94,590.272 594.806,590.413 594.66,590.54L594.19,590.9L593.71,591.22C593.55,591.32 593.4,591.42 593.27,591.52C593.139,591.614 593.018,591.721 592.91,591.84C592.814,591.939 592.743,592.059 592.7,592.19L595.43,592.19L595.39,593Z" style="fill:white;fill-rule:nonzero;"/>
    </g>
    <g transform="matrix(1,0,0,1,0.14,0.14)">
        <path d="M596.13,588.28C596.316,588.295 596.504,588.295 596.69,588.28C596.859,588.246 597.024,588.193 597.18,588.12C597.323,588.046 597.451,587.948 597.56,587.83C597.664,587.707 597.733,587.559 597.76,587.4L598.51,587.4L598.51,593L597.51,593L597.51,589L596.13,589L596.13,588.28Z" style="fill:white;fill-rule:nonzero;"/>
    </g>
    <g transform="matrix(1,0,0,1,0.14,0.14)">
        <path d="M622.93,593L619.1,593C619.1,592.57 619.217,592.148 619.44,591.78C619.677,591.423 619.983,591.117 620.34,590.88L620.9,590.49C621.093,590.371 621.277,590.237 621.45,590.09C621.605,589.951 621.743,589.793 621.86,589.62C621.966,589.431 622.014,589.216 622,589C622.009,588.89 622.009,588.78 622,588.67C621.972,588.556 621.925,588.448 621.86,588.35C621.785,588.247 621.685,588.164 621.57,588.11C621.422,588.034 621.257,587.996 621.09,588C620.933,587.996 620.777,588.034 620.64,588.11C620.519,588.184 620.42,588.287 620.35,588.41C620.273,588.547 620.219,588.696 620.19,588.85C620.149,589.034 620.129,589.222 620.13,589.41L619.22,589.41C619.217,589.119 619.258,588.829 619.34,588.55C619.414,588.297 619.54,588.062 619.71,587.86C619.88,587.669 620.087,587.516 620.32,587.41C620.581,587.292 620.864,587.234 621.15,587.24C621.442,587.234 621.733,587.292 622,587.41C622.216,587.511 622.407,587.658 622.56,587.84C622.696,588.001 622.798,588.188 622.86,588.39C622.918,588.578 622.948,588.773 622.95,588.97C622.95,589.178 622.913,589.385 622.84,589.58C622.77,589.759 622.676,589.927 622.56,590.08C622.443,590.234 622.308,590.375 622.16,590.5L621.7,590.86L620.77,591.48C620.644,591.576 620.527,591.683 620.42,591.8C620.324,591.899 620.253,592.019 620.21,592.15L622.94,592.15L622.93,593Z" style="fill:white;fill-rule:nonzero;"/>
    </g>
    <g transform="matrix(1,0,0,1,0.14,0.14)">
        <path d="M627.38,593L623.55,593C623.55,592.57 623.667,592.148 623.89,591.78C624.127,591.423 624.433,591.117 624.79,590.88L625.36,590.49C625.548,590.368 625.728,590.234 625.9,590.09C626.058,589.953 626.196,589.795 626.31,589.62C626.418,589.446 626.477,589.245 626.48,589.04C626.493,588.93 626.493,588.82 626.48,588.71C626.457,588.595 626.409,588.486 626.34,588.39C626.265,588.287 626.165,588.204 626.05,588.15C625.902,588.074 625.737,588.036 625.57,588.04C625.413,588.036 625.257,588.074 625.12,588.15C624.999,588.224 624.9,588.327 624.83,588.45C624.757,588.589 624.703,588.737 624.67,588.89C624.639,589.075 624.619,589.262 624.61,589.45L623.7,589.45C623.697,589.159 623.738,588.869 623.82,588.59C623.894,588.337 624.02,588.102 624.19,587.9C624.36,587.709 624.567,587.556 624.8,587.45C625.061,587.335 625.344,587.277 625.63,587.28C625.923,587.271 626.213,587.329 626.48,587.45C626.696,587.551 626.887,587.698 627.04,587.88C627.176,588.041 627.278,588.228 627.34,588.43C627.398,588.618 627.428,588.813 627.43,589.01C627.428,589.217 627.395,589.423 627.33,589.62C627.256,589.797 627.162,589.965 627.05,590.12C626.926,590.272 626.789,590.413 626.64,590.54C626.5,590.66 626.34,590.78 626.18,590.9L625.7,591.22C625.54,591.32 625.39,591.42 625.26,591.52C625.129,591.614 625.008,591.721 624.9,591.84C624.804,591.939 624.733,592.059 624.69,592.19L627.42,592.19L627.38,593Z" style="fill:white;fill-rule:nonzero;"/>
    </g>
    <g transform="matrix(1,0,0,1,0.14,0.14)">
        <path d="M651.28,593L647.45,593C647.446,592.571 647.56,592.149 647.78,591.78C648.017,591.423 648.323,591.117 648.68,590.88L649.25,590.49C649.443,590.371 649.627,590.237 649.8,590.09C649.955,589.953 650.09,589.795 650.2,589.62C650.315,589.449 650.375,589.246 650.37,589.04C650.379,588.93 650.379,588.82 650.37,588.71C650.338,588.598 650.291,588.49 650.23,588.39C650.155,588.287 650.055,588.204 649.94,588.15C649.792,588.074 649.627,588.036 649.46,588.04C649.3,588.035 649.141,588.073 649,588.15C648.882,588.224 648.786,588.328 648.72,588.45C648.639,588.585 648.584,588.734 648.56,588.89C648.519,589.074 648.499,589.262 648.5,589.45L647.58,589.45C647.575,589.158 647.619,588.867 647.71,588.59C647.78,588.335 647.907,588.099 648.08,587.9C648.246,587.709 648.45,587.556 648.68,587.45C649.22,587.223 649.83,587.223 650.37,587.45C650.584,587.554 650.775,587.7 650.93,587.88C651.066,588.041 651.168,588.228 651.23,588.43C651.285,588.618 651.312,588.814 651.31,589.01C651.313,589.218 651.279,589.424 651.21,589.62C651.14,589.799 651.046,589.967 650.93,590.12C650.81,590.272 650.676,590.413 650.53,590.54L650.07,590.9C649.91,591.01 649.75,591.12 649.58,591.22L649.14,591.52C649.009,591.614 648.888,591.721 648.78,591.84C648.684,591.937 648.615,592.058 648.58,592.19L651.31,592.19L651.28,593Z" style="fill:white;fill-rule:nonzero;"/>
    </g>
    <g transform="matrix(1,0,0,1,0.14,0.14)">
        <path d="M653.41,589.67L653.86,589.67C653.999,589.643 654.134,589.596 654.26,589.53C654.377,589.461 654.477,589.365 654.55,589.25C654.625,589.119 654.663,588.971 654.66,588.82C654.665,588.6 654.573,588.388 654.41,588.24C654.234,588.091 654.01,588.013 653.78,588.02C653.637,588.019 653.496,588.053 653.37,588.12C653.25,588.181 653.147,588.27 653.07,588.38C652.996,588.494 652.938,588.619 652.9,588.75C652.88,588.889 652.88,589.031 652.9,589.17L651.99,589.17C651.998,588.91 652.049,588.653 652.14,588.41C652.227,588.187 652.356,587.984 652.52,587.81C652.675,587.633 652.871,587.496 653.09,587.41C653.33,587.307 653.589,587.256 653.85,587.26C654.067,587.263 654.282,587.297 654.49,587.36C654.694,587.421 654.887,587.515 655.06,587.64C655.229,587.765 655.369,587.925 655.47,588.11C655.572,588.311 655.624,588.534 655.62,588.76C655.624,589.019 655.558,589.275 655.43,589.5C655.291,589.72 655.078,589.883 654.83,589.96C655.132,590.011 655.4,590.185 655.57,590.44C655.886,590.931 655.927,591.551 655.68,592.08C655.58,592.288 655.433,592.469 655.25,592.61C655.063,592.762 654.85,592.877 654.62,592.95C654.375,593.03 654.118,593.071 653.86,593.07C653.567,593.079 653.275,593.032 653,592.93C652.771,592.846 652.563,592.713 652.39,592.54C652.227,592.36 652.101,592.149 652.02,591.92C651.934,591.662 651.89,591.392 651.89,591.12L652.8,591.12C652.777,591.424 652.866,591.727 653.05,591.97C653.253,592.202 653.552,592.328 653.86,592.31C654.137,592.322 654.409,592.229 654.62,592.05C654.953,591.718 655.026,591.202 654.8,590.79C654.718,590.666 654.604,590.566 654.47,590.5C654.323,590.429 654.163,590.388 654,590.38C653.82,590.365 653.64,590.365 653.46,590.38L653.41,589.67Z" style="fill:white;fill-rule:nonzero;"/>
    </g>
    <g transform="matrix(1,0,0,1,0.14,0.14)">
        <path d="M679.49,593L675.66,593C675.66,592.57 675.777,592.148 676,591.78C676.233,591.423 676.536,591.117 676.89,590.88L677.46,590.49C677.653,590.371 677.837,590.237 678.01,590.09C678.165,589.953 678.3,589.795 678.41,589.62C678.525,589.449 678.585,589.246 678.58,589.04C678.589,588.93 678.589,588.82 678.58,588.71C678.552,588.596 678.505,588.488 678.44,588.39C678.365,588.287 678.265,588.204 678.15,588.15C678.002,588.074 677.837,588.036 677.67,588.04C677.513,588.036 677.357,588.074 677.22,588.15C677.099,588.224 677,588.327 676.93,588.45C676.853,588.587 676.799,588.736 676.77,588.89C676.729,589.074 676.709,589.262 676.71,589.45L675.79,589.45C675.785,589.158 675.829,588.867 675.92,588.59C675.99,588.335 676.117,588.099 676.29,587.9C676.46,587.709 676.667,587.556 676.9,587.45C677.157,587.333 677.437,587.275 677.72,587.28C678.016,587.272 678.309,587.33 678.58,587.45C678.796,587.551 678.987,587.698 679.14,587.88C679.276,588.041 679.378,588.228 679.44,588.43C679.498,588.618 679.528,588.813 679.53,589.01C679.53,589.218 679.493,589.425 679.42,589.62C679.35,589.799 679.256,589.967 679.14,590.12C679.02,590.272 678.886,590.413 678.74,590.54L678.28,590.9L677.35,591.52C677.224,591.616 677.107,591.723 677,591.84C676.898,591.934 676.825,592.056 676.79,592.19L679.52,592.19L679.49,593Z" style="fill:white;fill-rule:nonzero;"/>
    </g>
    <g transform="matrix(1,0,0,1,0.14,0.14)">
        <path d="M684,591.62L683.28,591.62L683.28,593L682.41,593L682.41,591.67L680,591.67L680,590.77L682.4,587.4L683.27,587.4L683.27,590.95L684,590.95L684,591.62ZM680.72,590.9L682.41,590.9L682.41,588.44L680.72,590.9Z" style="fill:white;fill-rule:nonzero;"/>
    </g>
    <g transform="matrix(1,0,0,1,0.14,0.14)">
        <path d="M2.26,551.39C2.446,551.405 2.634,551.405 2.82,551.39C2.99,551.361 3.155,551.307 3.31,551.23C3.453,551.156 3.581,551.058 3.69,550.94C3.794,550.817 3.863,550.669 3.89,550.51L4.64,550.51L4.64,556.11L3.64,556.11L3.64,552.16L2.26,552.16L2.26,551.39Z" style="fill:white;fill-rule:nonzero;"/>
    </g>
    <g transform="matrix(1,0,0,1,0.14,0.14)">
        <path d="M6.78,527.72L3,527.72C2.99,527.29 3.105,526.866 3.33,526.5C3.564,526.138 3.87,525.828 4.23,525.59C4.41,525.46 4.6,525.33 4.8,525.21C4.992,525.09 5.172,524.952 5.34,524.8C5.5,524.666 5.639,524.507 5.75,524.33C5.858,524.156 5.917,523.955 5.92,523.75C5.934,523.644 5.934,523.536 5.92,523.43C5.898,523.314 5.851,523.205 5.78,523.11C5.706,523.007 5.611,522.921 5.5,522.86C5.348,522.786 5.179,522.751 5.01,522.76C4.853,522.756 4.697,522.794 4.56,522.87C4.442,522.943 4.343,523.042 4.27,523.16C4.197,523.302 4.143,523.454 4.11,523.61C4.079,523.792 4.058,523.976 4.05,524.16L3.06,524.16C3.055,523.868 3.099,523.577 3.19,523.3C3.263,523.049 3.389,522.817 3.56,522.62C3.721,522.421 3.926,522.264 4.16,522.16C4.425,522.047 4.712,521.992 5,522C5.296,521.992 5.589,522.05 5.86,522.17C6.072,522.268 6.26,522.411 6.41,522.59C6.554,522.75 6.657,522.942 6.71,523.15C6.767,523.335 6.798,523.527 6.8,523.72C6.804,523.928 6.77,524.134 6.7,524.33C6.633,524.51 6.538,524.679 6.42,524.83C6.3,524.982 6.166,525.123 6.02,525.25C5.87,525.379 5.713,525.499 5.55,525.61L5.07,525.93C4.91,526.03 4.76,526.13 4.63,526.23C4.501,526.327 4.381,526.434 4.27,526.55C4.177,526.651 4.105,526.77 4.06,526.9L6.78,526.9L6.78,527.72Z" style="fill:white;fill-rule:nonzero;"/>
    </g>
    <g transform="matrix(1,0,0,1,0.14,0.14)">
        <path d="M4.47,496.09C4.62,496.105 4.77,496.105 4.92,496.09C5.061,496.071 5.197,496.023 5.32,495.95C5.438,495.89 5.536,495.796 5.6,495.68C5.78,495.355 5.727,494.948 5.47,494.68C5.295,494.53 5.07,494.451 4.84,494.46C4.694,494.455 4.549,494.49 4.42,494.56C4.303,494.621 4.204,494.711 4.13,494.82C4.052,494.932 3.994,495.057 3.96,495.19C3.934,495.329 3.934,495.471 3.96,495.61L3,495.61C3.007,495.35 3.058,495.093 3.15,494.85C3.234,494.628 3.359,494.424 3.52,494.25C3.679,494.077 3.874,493.941 4.09,493.85C4.33,493.748 4.589,493.696 4.85,493.7C5.071,493.698 5.29,493.732 5.5,493.8C5.704,493.861 5.897,493.955 6.07,494.08C6.239,494.203 6.376,494.364 6.47,494.55C6.573,494.751 6.625,494.974 6.62,495.2C6.628,495.46 6.562,495.716 6.43,495.94C6.288,496.157 6.076,496.319 5.83,496.4C6.133,496.45 6.403,496.62 6.58,496.87C6.766,497.144 6.86,497.469 6.85,497.8C6.855,498.046 6.8,498.29 6.69,498.51C6.587,498.719 6.44,498.903 6.26,499.05C6.068,499.2 5.852,499.315 5.62,499.39C5.375,499.471 5.118,499.512 4.86,499.51C4.57,499.519 4.282,499.471 4.01,499.37C3.777,499.289 3.568,499.151 3.4,498.97C3.231,498.798 3.105,498.589 3.03,498.36C2.941,498.103 2.893,497.832 2.89,497.56L3.81,497.56C3.788,497.864 3.877,498.166 4.06,498.41C4.261,498.639 4.556,498.765 4.86,498.75C5.139,498.757 5.412,498.665 5.63,498.49C5.84,498.303 5.954,498.031 5.94,497.75C5.945,497.568 5.9,497.388 5.81,497.23C5.727,497.103 5.609,497.002 5.47,496.94C5.322,496.869 5.163,496.825 5,496.81C4.823,496.8 4.647,496.8 4.47,496.81L4.47,496.09Z" style="fill:white;fill-rule:nonzero;"/>
    </g>
    <g transform="matrix(1,0,0,1,0.14,0.14)">
        <path d="M6.82,469.69L6.1,469.69L6.1,471L5.24,471L5.24,469.67L2.84,469.67L2.84,468.77L5.24,465.4L6.1,465.4L6.1,469L6.82,469L6.82,469.69ZM3.54,469L5.24,469L5.24,466.54L3.54,469Z" style="fill:white;fill-rule:nonzero;"/>
    </g>
    <g transform="matrix(1,0,0,1,0.14,0.14)">
        <path d="M3.63,437.07L6.53,437.07L6.53,437.89L4.31,437.89L4,439.31C4.13,439.168 4.29,439.058 4.47,438.99C4.649,438.923 4.839,438.889 5.03,438.89C5.287,438.882 5.543,438.93 5.78,439.03C5.99,439.117 6.178,439.251 6.33,439.42C6.479,439.594 6.595,439.794 6.67,440.01C6.748,440.252 6.786,440.506 6.78,440.76C6.78,440.994 6.746,441.226 6.68,441.45C6.605,441.687 6.486,441.907 6.33,442.1C6.168,442.302 5.963,442.466 5.73,442.58C5.457,442.714 5.154,442.779 4.85,442.77C4.593,442.771 4.336,442.734 4.09,442.66C3.868,442.594 3.661,442.485 3.48,442.34C3.3,442.195 3.156,442.01 3.06,441.8C2.949,441.569 2.887,441.317 2.88,441.06L3.8,441.06C3.806,441.325 3.918,441.577 4.11,441.76C4.308,441.935 4.567,442.025 4.83,442.01C4.999,442.019 5.168,441.984 5.32,441.91C5.447,441.852 5.557,441.762 5.64,441.65C5.728,441.535 5.789,441.401 5.82,441.26C5.836,441.1 5.836,440.94 5.82,440.78C5.821,440.628 5.801,440.476 5.76,440.33C5.715,440.198 5.651,440.073 5.57,439.96C5.477,439.85 5.361,439.761 5.23,439.7C5.082,439.637 4.921,439.606 4.76,439.61C4.575,439.605 4.391,439.639 4.22,439.71C4.047,439.792 3.914,439.94 3.85,440.12L3,440.12L3.63,437.07Z" style="fill:white;fill-rule:nonzero;"/>
    </g>
    <g transform="matrix(1,0,0,1,0.14,0.14)">
        <path d="M5.54,410.14C5.531,409.931 5.441,409.734 5.29,409.59C5.141,409.438 4.933,409.358 4.72,409.37C4.57,409.365 4.422,409.399 4.29,409.47C4.174,409.527 4.071,409.609 3.99,409.71C3.906,409.816 3.838,409.934 3.79,410.06C3.79,410.19 3.7,410.33 3.66,410.47C3.63,410.612 3.61,410.755 3.6,410.9L3.6,411.3C3.713,411.087 3.887,410.913 4.1,410.8C4.32,410.691 4.564,410.636 4.81,410.64C5.064,410.633 5.316,410.681 5.55,410.78C5.761,410.875 5.952,411.011 6.11,411.18C6.259,411.354 6.375,411.554 6.45,411.77C6.532,412.011 6.572,412.265 6.57,412.52C6.573,412.779 6.529,413.037 6.44,413.28C6.357,413.504 6.227,413.709 6.06,413.88C5.896,414.058 5.694,414.198 5.47,414.29C5.229,414.389 4.97,414.437 4.71,414.43C4.362,414.446 4.016,414.366 3.71,414.2C3.447,414.055 3.229,413.841 3.08,413.58C2.917,413.293 2.812,412.977 2.77,412.65C2.708,412.27 2.678,411.885 2.68,411.5C2.68,411.164 2.716,410.828 2.79,410.5C2.857,410.173 2.975,409.859 3.14,409.57C3.3,409.295 3.522,409.062 3.79,408.89C4.089,408.703 4.437,408.609 4.79,408.62C5.006,408.617 5.22,408.658 5.42,408.74C5.616,408.805 5.797,408.911 5.95,409.05C6.102,409.185 6.228,409.348 6.32,409.53C6.421,409.721 6.476,409.934 6.48,410.15L5.54,410.14ZM4.66,413.68C4.81,413.685 4.958,413.651 5.09,413.58C5.213,413.519 5.319,413.43 5.4,413.32C5.484,413.21 5.545,413.084 5.58,412.95C5.62,412.807 5.64,412.659 5.64,412.51C5.64,412.365 5.62,412.22 5.58,412.08C5.545,411.949 5.484,411.827 5.4,411.72C5.315,411.613 5.21,411.525 5.09,411.46C4.955,411.398 4.808,411.368 4.66,411.37C4.508,411.366 4.358,411.397 4.22,411.46C4.097,411.521 3.988,411.606 3.9,411.71C3.817,411.819 3.753,411.94 3.71,412.07C3.67,412.213 3.65,412.361 3.65,412.51C3.641,412.803 3.728,413.092 3.9,413.33C3.99,413.435 4.098,413.524 4.22,413.59C4.358,413.653 4.508,413.684 4.66,413.68Z" style="fill:white;fill-rule:nonzero;"/>
    </g>
    <g transform="matrix(1,0,0,1,0.14,0.14)">
        <path d="M2.92,380.38L6.76,380.38L6.76,381.14C6.472,381.456 6.205,381.79 5.96,382.14C5.717,382.497 5.506,382.875 5.33,383.27C5.149,383.677 5.002,384.099 4.89,384.53C4.775,385.013 4.702,385.505 4.67,386L3.67,386C3.702,385.557 3.779,385.118 3.9,384.69C4.019,384.258 4.173,383.837 4.36,383.43C4.545,383.019 4.759,382.621 5,382.24C5.247,381.888 5.517,381.554 5.81,381.24L2.92,381.24L2.92,380.38Z" style="fill:white;fill-rule:nonzero;"/>
    </g>
    <g transform="matrix(1,0,0,1,0.14,0.14)">
        <path d="M4.87,357.75C4.602,357.752 4.335,357.712 4.08,357.63C3.85,357.554 3.636,357.435 3.45,357.28C3.275,357.124 3.136,356.933 3.04,356.72C2.937,356.491 2.885,356.241 2.89,355.99C2.883,355.671 2.981,355.358 3.17,355.1C3.356,354.857 3.621,354.687 3.92,354.62C3.681,354.541 3.474,354.387 3.33,354.18C3.191,353.97 3.121,353.722 3.13,353.47C3.107,353.046 3.272,352.632 3.58,352.34C3.947,352.054 4.406,351.912 4.87,351.94C5.334,351.912 5.793,352.054 6.16,352.34C6.475,352.628 6.645,353.044 6.62,353.47C6.626,353.723 6.552,353.971 6.41,354.18C6.269,354.389 6.061,354.544 5.82,354.62C6.119,354.687 6.384,354.857 6.57,355.1C6.763,355.355 6.862,355.67 6.85,355.99C6.855,356.241 6.803,356.491 6.7,356.72C6.604,356.933 6.465,357.124 6.29,357.28C6.104,357.435 5.89,357.554 5.66,357.63C5.405,357.712 5.138,357.752 4.87,357.75ZM4.87,357.03C5.148,357.039 5.42,356.943 5.63,356.76C5.84,356.56 5.953,356.279 5.94,355.99C5.949,355.713 5.836,355.446 5.63,355.26C5.416,355.085 5.146,354.993 4.87,355C4.594,354.993 4.324,355.085 4.11,355.26C3.907,355.447 3.797,355.714 3.81,355.99C3.794,356.278 3.904,356.559 4.11,356.76C4.324,356.932 4.596,357.018 4.87,357L4.87,357.03ZM4.87,352.64C4.643,352.633 4.422,352.712 4.25,352.86C4.072,353.024 3.977,353.259 3.99,353.5C3.975,353.731 4.067,353.956 4.24,354.11C4.416,354.256 4.641,354.331 4.87,354.32C5.099,354.331 5.324,354.256 5.5,354.11C5.673,353.956 5.765,353.731 5.75,353.5C5.767,353.26 5.675,353.025 5.5,352.86C5.324,352.711 5.1,352.633 4.87,352.64Z" style="fill:white;fill-rule:nonzero;"/>
    </g>
    <g transform="matrix(1,0,0,1,0.14,0.14)">
        <path d="M3.93,327.87C3.948,328.079 4.036,328.277 4.18,328.43C4.333,328.575 4.539,328.651 4.75,328.64C4.964,328.653 5.174,328.585 5.34,328.45C5.489,328.315 5.606,328.147 5.68,327.96C5.76,327.758 5.814,327.546 5.84,327.33C5.84,327.11 5.9,326.91 5.91,326.72C5.785,326.927 5.609,327.099 5.4,327.22C5.184,327.332 4.944,327.391 4.7,327.39C4.45,327.392 4.202,327.344 3.97,327.25C3.763,327.162 3.575,327.033 3.42,326.87C3.257,326.703 3.134,326.501 3.06,326.28C2.968,326.03 2.924,325.766 2.93,325.5C2.926,325.241 2.97,324.983 3.06,324.74C3.142,324.514 3.268,324.307 3.43,324.13C3.602,323.954 3.81,323.818 4.04,323.73C4.301,323.626 4.579,323.575 4.86,323.58C5.208,323.562 5.554,323.642 5.86,323.81C6.118,323.959 6.329,324.178 6.47,324.44C6.624,324.731 6.728,325.045 6.78,325.37C6.838,325.75 6.865,326.135 6.86,326.52C6.86,326.856 6.827,327.191 6.76,327.52C6.69,327.847 6.568,328.161 6.4,328.45C6.237,328.725 6.015,328.961 5.75,329.14C5.45,329.325 5.102,329.416 4.75,329.4C4.535,329.404 4.321,329.367 4.12,329.29C3.927,329.219 3.747,329.114 3.59,328.98C3.246,328.71 3.031,328.307 3,327.87L3.93,327.87ZM4.81,324.33C4.658,324.329 4.507,324.364 4.37,324.43C4.251,324.488 4.148,324.573 4.07,324.68C3.988,324.792 3.927,324.917 3.89,325.05C3.85,325.19 3.83,325.335 3.83,325.48C3.829,325.629 3.849,325.777 3.89,325.92C3.925,326.057 3.986,326.186 4.07,326.3C4.153,326.404 4.255,326.493 4.37,326.56C4.507,326.626 4.658,326.661 4.81,326.66C4.966,326.665 5.121,326.631 5.26,326.56C5.383,326.499 5.489,326.41 5.57,326.3C5.657,326.186 5.721,326.058 5.76,325.92C5.801,325.777 5.821,325.629 5.82,325.48C5.82,325.335 5.8,325.19 5.76,325.05C5.719,324.916 5.655,324.791 5.57,324.68C5.484,324.577 5.379,324.492 5.26,324.43C5.119,324.364 4.966,324.33 4.81,324.33Z" style="fill:white;fill-rule:nonzero;"/>
    </g>
    <g transform="matrix(1,0,0,1,0.14,0.14)">
        <path d="M2.26,296.27C2.446,296.285 2.634,296.285 2.82,296.27C2.991,296.246 3.157,296.191 3.31,296.11C3.455,296.04 3.584,295.941 3.69,295.82C3.794,295.697 3.863,295.549 3.89,295.39L4.64,295.39L4.64,300.99L3.64,300.99L3.64,297L2.26,297L2.26,296.27Z" style="fill:white;fill-rule:nonzero;"/>
    </g>
    <g transform="matrix(1,0,0,1,0.14,0.14)">
        <path d="M8.51,295.23C8.864,295.21 9.214,295.305 9.51,295.5C9.767,295.682 9.973,295.927 10.11,296.21C10.251,296.508 10.349,296.824 10.4,297.15C10.448,297.481 10.471,297.815 10.47,298.15C10.471,298.485 10.447,298.819 10.4,299.15C10.347,299.475 10.25,299.792 10.11,300.09C9.973,300.37 9.766,300.611 9.51,300.79C9.216,300.988 8.865,301.087 8.51,301.07C8.155,301.085 7.805,300.987 7.51,300.79C7.26,300.608 7.057,300.368 6.92,300.09C6.776,299.793 6.678,299.476 6.63,299.15C6.583,298.819 6.559,298.485 6.56,298.15C6.559,297.815 6.582,297.481 6.63,297.15C6.677,296.823 6.774,296.506 6.92,296.21C7.057,295.929 7.259,295.686 7.51,295.5C7.806,295.306 8.157,295.212 8.51,295.23ZM8.51,300.3C8.694,300.307 8.873,300.242 9.01,300.12C9.153,299.995 9.263,299.837 9.33,299.66C9.409,299.44 9.463,299.212 9.49,298.98C9.506,298.7 9.506,298.42 9.49,298.14C9.506,297.864 9.506,297.586 9.49,297.31C9.463,297.078 9.409,296.85 9.33,296.63C9.261,296.451 9.151,296.29 9.01,296.16C8.716,295.934 8.304,295.934 8.01,296.16C7.872,296.291 7.766,296.452 7.7,296.63C7.616,296.848 7.563,297.077 7.54,297.31C7.519,297.586 7.519,297.864 7.54,298.14C7.519,298.42 7.519,298.7 7.54,298.98C7.563,299.213 7.616,299.442 7.7,299.66C7.764,299.837 7.87,299.995 8.01,300.12C8.147,300.242 8.326,300.307 8.51,300.3Z" style="fill:white;fill-rule:nonzero;"/>
    </g>
    <g transform="matrix(1,0,0,1,0.14,0.14)">
        <path d="M2.26,267.92C2.448,267.924 2.636,267.907 2.82,267.87C2.991,267.846 3.157,267.791 3.31,267.71C3.452,267.64 3.581,267.545 3.69,267.43C3.794,267.303 3.863,267.152 3.89,266.99L4.64,266.99L4.64,272.6L3.64,272.6L3.64,268.6L2.26,268.6L2.26,267.92Z" style="fill:white;fill-rule:nonzero;"/>
    </g>
    <g transform="matrix(1,0,0,1,0.14,0.14)">
        <path d="M6.71,267.92C6.898,267.924 7.086,267.907 7.27,267.87C7.441,267.846 7.607,267.791 7.76,267.71C7.904,267.643 8.033,267.547 8.14,267.43C8.245,267.303 8.317,267.152 8.35,266.99L9.09,266.99L9.09,272.6L8.09,272.6L8.09,268.6L6.71,268.6L6.71,267.92Z" style="fill:white;fill-rule:nonzero;"/>
    </g>
    <g transform="matrix(1,0,0,1,0.14,0.14)">
        <path d="M2.26,239.58C2.448,239.579 2.635,239.562 2.82,239.53C2.99,239.501 3.155,239.447 3.31,239.37C3.453,239.296 3.581,239.198 3.69,239.08C3.794,238.957 3.863,238.809 3.89,238.65L4.64,238.65L4.64,244.25L3.64,244.25L3.64,240.3L2.26,240.3L2.26,239.58Z" style="fill:white;fill-rule:nonzero;"/>
    </g>
    <g transform="matrix(1,0,0,1,0.14,0.14)">
        <path d="M10.43,244.25L6.6,244.25C6.585,243.809 6.704,243.373 6.94,243C7.168,242.637 7.472,242.326 7.83,242.09L8.4,241.7C8.593,241.581 8.777,241.447 8.95,241.3C9.105,241.163 9.24,241.005 9.35,240.83C9.465,240.659 9.525,240.456 9.52,240.25C9.529,240.14 9.529,240.03 9.52,239.92C9.492,239.806 9.445,239.698 9.38,239.6C9.302,239.5 9.203,239.418 9.09,239.36C8.941,239.287 8.776,239.253 8.61,239.26C8.454,239.253 8.298,239.287 8.16,239.36C8.039,239.434 7.94,239.537 7.87,239.66C7.789,239.795 7.734,239.944 7.71,240.1C7.669,240.284 7.649,240.472 7.65,240.66L6.7,240.66C6.695,240.368 6.739,240.077 6.83,239.8C6.9,239.545 7.027,239.309 7.2,239.11C7.368,238.921 7.572,238.768 7.8,238.66C8.34,238.433 8.95,238.433 9.49,238.66C9.706,238.761 9.897,238.908 10.05,239.09C10.186,239.251 10.288,239.438 10.35,239.64C10.408,239.828 10.438,240.023 10.44,240.22C10.44,240.428 10.403,240.635 10.33,240.83C10.26,241.009 10.166,241.177 10.05,241.33C9.93,241.482 9.796,241.623 9.65,241.75L9.19,242.11L8.26,242.73C8.133,242.829 8.013,242.936 7.9,243.05C7.804,243.147 7.735,243.268 7.7,243.4L10.43,243.4L10.43,244.25Z" style="fill:white;fill-rule:nonzero;"/>
    </g>
    <g transform="matrix(1,0,0,1,0.14,0.14)">
        <path d="M2.26,211.23C2.446,211.245 2.634,211.245 2.82,211.23C2.991,211.206 3.157,211.151 3.31,211.07C3.455,211 3.584,210.901 3.69,210.78C3.796,210.658 3.865,210.509 3.89,210.35L4.64,210.35L4.64,215.96L3.64,215.96L3.64,211.96L2.26,211.96L2.26,211.23Z" style="fill:white;fill-rule:nonzero;"/>
    </g>
    <g transform="matrix(1,0,0,1,0.14,0.14)">
        <path d="M8.11,212.62C8.259,212.64 8.411,212.64 8.56,212.62C8.7,212.596 8.836,212.549 8.96,212.48C9.077,212.411 9.177,212.315 9.25,212.2C9.322,212.069 9.357,211.92 9.35,211.77C9.36,211.554 9.272,211.344 9.11,211.2C8.937,211.047 8.711,210.968 8.48,210.98C8.337,210.974 8.194,211.009 8.07,211.08C7.953,211.141 7.851,211.226 7.77,211.33C7.697,211.445 7.64,211.57 7.6,211.7C7.58,211.839 7.58,211.981 7.6,212.12L6.64,212.12C6.647,211.863 6.698,211.61 6.79,211.37C6.876,211.146 7.001,210.94 7.16,210.76C7.324,210.588 7.521,210.452 7.74,210.36C7.982,210.264 8.24,210.217 8.5,210.22C8.717,210.22 8.932,210.25 9.14,210.31C9.343,210.375 9.535,210.469 9.71,210.59C9.877,210.715 10.014,210.875 10.11,211.06C10.221,211.262 10.277,211.49 10.27,211.72C10.273,211.98 10.204,212.237 10.07,212.46C9.933,212.682 9.72,212.846 9.47,212.92C9.772,212.979 10.04,213.151 10.22,213.4C10.536,213.891 10.577,214.511 10.33,215.04C10.224,215.247 10.078,215.431 9.9,215.58C9.711,215.728 9.498,215.843 9.27,215.92C9.025,216 8.768,216.041 8.51,216.04C8.217,216.044 7.926,215.997 7.65,215.9C7.422,215.808 7.215,215.672 7.04,215.5C6.877,215.32 6.751,215.109 6.67,214.88C6.583,214.622 6.539,214.352 6.54,214.08L7.45,214.08C7.427,214.387 7.516,214.693 7.7,214.94C7.903,215.172 8.202,215.298 8.51,215.28C8.786,215.286 9.055,215.194 9.27,215.02C9.482,214.835 9.597,214.561 9.58,214.28C9.592,214.097 9.547,213.915 9.45,213.76C9.364,213.632 9.247,213.529 9.11,213.46C8.964,213.397 8.809,213.356 8.65,213.34C8.47,213.33 8.29,213.33 8.11,213.34L8.11,212.62Z" style="fill:white;fill-rule:nonzero;"/>
    </g>
    <g transform="matrix(1,0,0,1,0.14,0.14)">
        <path d="M2.26,182.88C2.446,182.9 2.634,182.9 2.82,182.88C2.991,182.856 3.157,182.801 3.31,182.72C3.452,182.65 3.581,182.555 3.69,182.44C3.794,182.313 3.863,182.162 3.89,182L4.64,182L4.64,187.61L3.64,187.61L3.64,183.61L2.26,183.61L2.26,182.88Z" style="fill:white;fill-rule:nonzero;"/>
    </g>
    <g transform="matrix(1,0,0,1,0.14,0.14)">
        <path d="M10.47,186.23L9.75,186.23L9.75,187.56L8.88,187.56L8.88,186.23L6.48,186.23L6.48,185.32L8.88,182L9.75,182L9.75,185.56L10.47,185.56L10.47,186.23ZM7.18,185.51L8.88,185.51L8.88,183L7.18,185.51Z" style="fill:white;fill-rule:nonzero;"/>
    </g>
    <g transform="matrix(1,0,0,1,0.14,0.14)">
        <path d="M2.26,154.54C2.446,154.555 2.634,154.555 2.82,154.54C2.99,154.511 3.155,154.457 3.31,154.38C3.453,154.306 3.581,154.208 3.69,154.09C3.794,153.967 3.863,153.819 3.89,153.66L4.64,153.66L4.64,159.26L3.64,159.26L3.64,155.26L2.26,155.26L2.26,154.54Z" style="fill:white;fill-rule:nonzero;"/>
    </g>
    <g transform="matrix(1,0,0,1,0.14,0.14)">
        <path d="M7.27,153.61L10.17,153.61L10.17,154.42L8,154.42L7.71,155.85C7.837,155.705 7.999,155.595 8.18,155.53C8.359,155.461 8.548,155.424 8.74,155.42C8.997,155.418 9.251,155.466 9.49,155.56C9.69,155.668 9.864,155.818 10,156C10.152,156.176 10.267,156.38 10.34,156.6C10.422,156.841 10.462,157.095 10.46,157.35C10.456,157.584 10.419,157.816 10.35,158.04C10.275,158.277 10.156,158.497 10,158.69C9.836,158.891 9.632,159.055 9.4,159.17C9.124,159.296 8.823,159.357 8.52,159.35C8.263,159.353 8.007,159.32 7.76,159.25C7.538,159.179 7.331,159.067 7.15,158.92C6.97,158.779 6.827,158.597 6.73,158.39C6.623,158.158 6.565,157.906 6.56,157.65L7.47,157.65C7.47,157.651 7.47,157.651 7.47,157.652C7.47,158.168 7.894,158.592 8.41,158.592C8.43,158.592 8.45,158.591 8.47,158.59C8.638,158.596 8.805,158.565 8.96,158.5C9.091,158.439 9.204,158.346 9.29,158.23C9.374,158.114 9.432,157.981 9.46,157.84C9.497,157.683 9.514,157.521 9.51,157.36C9.51,157.211 9.49,157.063 9.45,156.92C9.411,156.782 9.347,156.654 9.26,156.54C9.169,156.435 9.056,156.349 8.93,156.29C8.78,156.22 8.616,156.185 8.45,156.19C8.265,156.191 8.081,156.228 7.91,156.3C7.738,156.378 7.604,156.522 7.54,156.7L6.67,156.7L7.27,153.61Z" style="fill:white;fill-rule:nonzero;"/>
    </g>
    <g transform="matrix(1,0,0,1,0.14,0.14)">
        <path d="M2.26,126.19C2.446,126.205 2.634,126.205 2.82,126.19C2.991,126.166 3.157,126.111 3.31,126.03C3.455,125.96 3.584,125.861 3.69,125.74C3.796,125.618 3.865,125.469 3.89,125.31L4.64,125.31L4.64,130.92L3.64,130.92L3.64,126.92L2.26,126.92L2.26,126.19Z" style="fill:white;fill-rule:nonzero;"/>
    </g>
    <g transform="matrix(1,0,0,1,0.14,0.14)">
        <path d="M9.45,126.68C9.44,126.471 9.355,126.272 9.21,126.12C9.052,125.976 8.843,125.901 8.63,125.91C8.485,125.907 8.341,125.938 8.21,126C8.088,126.057 7.982,126.143 7.9,126.25C7.816,126.352 7.749,126.467 7.7,126.59C7.649,126.727 7.609,126.867 7.58,127.01C7.542,127.147 7.518,127.288 7.51,127.43L7.51,127.83C7.621,127.612 7.8,127.437 8.02,127.33C8.236,127.218 8.476,127.159 8.72,127.16C8.975,127.156 9.227,127.207 9.46,127.31C9.674,127.395 9.866,127.528 10.02,127.7C10.175,127.875 10.294,128.079 10.37,128.3C10.451,128.538 10.492,128.788 10.49,129.04C10.49,129.299 10.446,129.556 10.36,129.8C10.273,130.028 10.141,130.236 9.97,130.41C9.805,130.585 9.604,130.722 9.38,130.81C9.14,130.912 8.881,130.964 8.62,130.96C8.272,130.972 7.928,130.892 7.62,130.73C7.359,130.583 7.142,130.369 6.99,130.11C6.835,129.82 6.73,129.505 6.68,129.18C6.618,128.8 6.588,128.415 6.59,128.03C6.593,127.694 6.63,127.359 6.7,127.03C6.751,126.706 6.852,126.392 7,126.1C7.166,125.824 7.392,125.588 7.66,125.41C7.961,125.229 8.309,125.138 8.66,125.15C8.878,125.15 9.095,125.187 9.3,125.26C9.488,125.335 9.664,125.44 9.82,125.57C9.971,125.707 10.096,125.869 10.19,126.05C10.29,126.245 10.344,126.461 10.35,126.68L9.45,126.68ZM8.57,130.22C8.719,130.221 8.867,130.187 9,130.12C9.118,130.053 9.223,129.965 9.31,129.86C9.392,129.748 9.453,129.623 9.49,129.49C9.529,129.347 9.55,129.199 9.55,129.05C9.55,128.905 9.53,128.76 9.49,128.62C9.453,128.487 9.392,128.362 9.31,128.25C9.13,128.027 8.857,127.897 8.57,127.9C8.417,127.895 8.266,127.929 8.13,128C8.011,128.057 7.905,128.139 7.82,128.24C7.732,128.351 7.664,128.476 7.62,128.61C7.579,128.753 7.559,128.901 7.56,129.05C7.56,129.199 7.58,129.347 7.62,129.49C7.664,129.624 7.732,129.749 7.82,129.86C7.901,129.97 8.007,130.059 8.13,130.12C8.266,130.191 8.417,130.225 8.57,130.22Z" style="fill:white;fill-rule:nonzero;"/>
    </g>
    <g transform="matrix(1,0,0,1,0.14,0.14)">
        <path d="M2.26,97.84C2.446,97.855 2.634,97.855 2.82,97.84C2.991,97.808 3.156,97.75 3.31,97.67C3.452,97.6 3.581,97.505 3.69,97.39C3.796,97.265 3.865,97.112 3.89,96.95L4.64,96.95L4.64,102.56L3.64,102.56L3.64,98.56L2.26,98.56L2.26,97.84Z" style="fill:white;fill-rule:nonzero;"/>
    </g>
    <g transform="matrix(1,0,0,1,0.14,0.14)">
        <path d="M6.57,96.91L10.4,96.91L10.4,97.67C10.116,97.989 9.849,98.323 9.6,98.67C9.37,99.04 9.169,99.428 9,99.83C8.824,100.238 8.68,100.659 8.57,101.09C8.455,101.56 8.378,102.038 8.34,102.52L7.34,102.52C7.372,102.077 7.449,101.638 7.57,101.21C7.679,100.795 7.823,100.39 8,100C8.181,99.589 8.402,99.197 8.66,98.83C8.909,98.483 9.176,98.149 9.46,97.83L6.57,97.83L6.57,96.91Z" style="fill:white;fill-rule:nonzero;"/>
    </g>
    <g transform="matrix(1,0,0,1,0.14,0.14)">
        <path d="M2.26,69.5C2.446,69.515 2.634,69.515 2.82,69.5C2.99,69.471 3.155,69.417 3.31,69.34C3.457,69.251 3.586,69.136 3.69,69C3.794,68.877 3.863,68.729 3.89,68.57L4.64,68.57L4.64,74.17L3.64,74.17L3.64,70.17L2.26,70.17L2.26,69.5Z" style="fill:white;fill-rule:nonzero;"/>
    </g>
    <g transform="matrix(1,0,0,1,0.14,0.14)">
        <path d="M8.51,74.29C8.242,74.292 7.975,74.251 7.72,74.17C7.492,74.096 7.281,73.977 7.1,73.82C6.922,73.666 6.778,73.475 6.68,73.26C6.58,73.026 6.532,72.774 6.54,72.52C6.53,72.205 6.625,71.895 6.81,71.64C6.999,71.398 7.263,71.225 7.56,71.15C7.331,71.056 7.136,70.896 7,70.69C6.865,70.482 6.796,70.238 6.8,69.99C6.777,69.566 6.942,69.152 7.25,68.86C7.615,68.57 8.075,68.427 8.54,68.46C9.008,68.427 9.471,68.57 9.84,68.86C10.14,69.16 10.294,69.577 10.26,70C10.266,70.25 10.192,70.495 10.05,70.7C9.908,70.907 9.706,71.064 9.47,71.15C9.767,71.225 10.031,71.398 10.22,71.64C10.405,71.895 10.5,72.205 10.49,72.52C10.494,72.775 10.443,73.027 10.34,73.26C10.245,73.474 10.106,73.665 9.93,73.82C9.745,73.977 9.531,74.096 9.3,74.17C9.045,74.253 8.778,74.293 8.51,74.29ZM8.51,73.57C8.79,73.578 9.062,73.477 9.27,73.29C9.48,73.09 9.593,72.809 9.58,72.52C9.597,72.245 9.482,71.977 9.27,71.8C9.057,71.623 8.787,71.531 8.51,71.54C8.234,71.534 7.965,71.626 7.75,71.8C7.545,71.981 7.434,72.247 7.45,72.52C7.434,72.808 7.544,73.089 7.75,73.29C7.96,73.474 8.231,73.574 8.51,73.57ZM8.51,69.18C8.283,69.173 8.062,69.252 7.89,69.4C7.713,69.56 7.617,69.792 7.63,70.03C7.619,70.263 7.71,70.49 7.88,70.65C8.257,70.928 8.773,70.928 9.15,70.65C9.324,70.481 9.413,70.242 9.39,70C9.407,69.763 9.315,69.531 9.14,69.37C8.961,69.23 8.736,69.163 8.51,69.18Z" style="fill:white;fill-rule:nonzero;"/>
    </g>
    <g transform="matrix(1,0,0,1,0.14,0.14)">
        <path d="M2.26,41.15C2.446,41.165 2.634,41.165 2.82,41.15C2.991,41.126 3.157,41.071 3.31,40.99C3.455,40.92 3.584,40.821 3.69,40.7C3.796,40.578 3.865,40.429 3.89,40.27L4.64,40.27L4.64,45.88L3.64,45.88L3.64,41.88L2.26,41.88L2.26,41.15Z" style="fill:white;fill-rule:nonzero;"/>
    </g>
    <g transform="matrix(1,0,0,1,0.14,0.14)">
        <path d="M7.58,44.41C7.592,44.619 7.677,44.817 7.82,44.97C7.973,45.115 8.179,45.191 8.39,45.18C8.609,45.202 8.828,45.138 9,45C9.152,44.867 9.269,44.699 9.34,44.51C9.424,44.312 9.481,44.103 9.51,43.89C9.51,43.67 9.51,43.46 9.57,43.28C9.456,43.496 9.278,43.671 9.06,43.78C8.846,43.898 8.604,43.957 8.36,43.95C8.11,43.955 7.862,43.911 7.63,43.82C7.423,43.732 7.235,43.603 7.08,43.44C6.917,43.269 6.794,43.064 6.72,42.84C6.61,42.574 6.556,42.288 6.56,42C6.555,41.744 6.599,41.489 6.69,41.25C6.767,41.022 6.893,40.814 7.06,40.64C7.232,40.461 7.44,40.321 7.67,40.23C7.933,40.135 8.211,40.088 8.49,40.09C8.838,40.078 9.182,40.158 9.49,40.32C9.74,40.472 9.947,40.685 10.09,40.94C10.247,41.233 10.351,41.551 10.4,41.88C10.454,42.251 10.478,42.625 10.47,43C10.467,43.336 10.43,43.671 10.36,44C10.302,44.353 10.18,44.692 10,45C9.843,45.277 9.619,45.51 9.35,45.68C9.051,45.868 8.703,45.962 8.35,45.95C8.135,45.949 7.922,45.912 7.72,45.84C7.528,45.767 7.351,45.659 7.2,45.52C7.037,45.376 6.908,45.199 6.82,45C6.724,44.807 6.669,44.596 6.66,44.38L7.58,44.41ZM8.45,40.87C8.291,40.875 8.137,40.919 8,41C7.879,41.058 7.772,41.144 7.69,41.25C7.608,41.362 7.547,41.487 7.51,41.62C7.43,41.908 7.43,42.212 7.51,42.5C7.545,42.634 7.606,42.76 7.69,42.87C7.769,42.982 7.876,43.072 8,43.13C8.132,43.202 8.28,43.236 8.43,43.23C8.585,43.233 8.738,43.202 8.88,43.14C9.002,43.079 9.108,42.99 9.19,42.88C9.28,42.768 9.345,42.639 9.38,42.5C9.473,42.214 9.473,41.906 9.38,41.62C9.345,41.487 9.28,41.364 9.19,41.26C9.118,41.15 9.018,41.06 8.9,41C8.764,40.919 8.609,40.874 8.45,40.87Z" style="fill:white;fill-rule:nonzero;"/>
    </g>
    <g transform="matrix(1,0,0,1,0.14,0.14)">
        <path d="M6.78,17.48L3,17.48C2.991,17.05 3.106,16.627 3.33,16.26C3.564,15.901 3.871,15.594 4.23,15.36L4.76,15C4.949,14.88 5.13,14.746 5.3,14.6C5.458,14.463 5.596,14.305 5.71,14.13C5.817,13.955 5.876,13.755 5.88,13.55C5.894,13.44 5.894,13.33 5.88,13.22C5.857,13.105 5.809,12.996 5.74,12.9C5.666,12.797 5.571,12.711 5.46,12.65C5.306,12.581 5.139,12.547 4.97,12.55C4.813,12.546 4.657,12.584 4.52,12.66C4.4,12.734 4.3,12.837 4.23,12.96C4.156,13.098 4.102,13.246 4.07,13.4C4.039,13.582 4.019,13.766 4.01,13.95L3.06,13.95C3.056,13.658 3.1,13.368 3.19,13.09C3.263,12.839 3.389,12.607 3.56,12.41C3.724,12.217 3.929,12.063 4.16,11.96C4.422,11.833 4.709,11.765 5,11.76C5.296,11.752 5.589,11.81 5.86,11.93C6.075,12.028 6.263,12.175 6.41,12.36C6.553,12.516 6.656,12.705 6.71,12.91C6.767,13.095 6.798,13.287 6.8,13.48C6.805,13.688 6.771,13.895 6.7,14.09C6.633,14.27 6.538,14.439 6.42,14.59C6.298,14.744 6.157,14.882 6,15C5.85,15.129 5.693,15.249 5.53,15.36C5.37,15.48 5.21,15.58 5.05,15.68L4.62,16C4.489,16.094 4.368,16.201 4.26,16.32C4.165,16.416 4.093,16.532 4.05,16.66L6.78,16.66L6.78,17.48Z" style="fill:white;fill-rule:nonzero;"/>
    </g>
    <g transform="matrix(1,0,0,1,0.14,0.14)">
        <path d="M9.32,11.76C9.675,11.743 10.026,11.842 10.32,12.04C10.576,12.219 10.783,12.46 10.92,12.74C11.061,13.037 11.155,13.354 11.2,13.68C11.255,14.01 11.282,14.345 11.28,14.68C11.283,15.015 11.256,15.35 11.2,15.68C11.157,16.006 11.062,16.323 10.92,16.62C10.783,16.903 10.577,17.148 10.32,17.33C10.024,17.525 9.674,17.62 9.32,17.6C8.967,17.618 8.616,17.524 8.32,17.33C8.069,17.144 7.867,16.901 7.73,16.62C7.584,16.324 7.487,16.007 7.44,15.68C7.389,15.349 7.362,15.015 7.36,14.68C7.363,14.345 7.39,14.011 7.44,13.68C7.488,13.354 7.586,13.037 7.73,12.74C7.867,12.462 8.07,12.222 8.32,12.04C8.615,11.843 8.965,11.745 9.32,11.76ZM9.32,16.83C9.502,16.835 9.679,16.775 9.82,16.66C9.961,16.53 10.071,16.369 10.14,16.19C10.22,15.97 10.273,15.742 10.3,15.51C10.316,15.234 10.316,14.956 10.3,14.68C10.316,14.404 10.316,14.126 10.3,13.85C10.272,13.615 10.219,13.383 10.14,13.16C10.07,12.984 9.961,12.826 9.82,12.7C9.532,12.459 9.108,12.459 8.82,12.7C8.682,12.827 8.576,12.985 8.51,13.16C8.426,13.382 8.373,13.614 8.35,13.85C8.329,14.126 8.329,14.404 8.35,14.68C8.329,14.956 8.329,15.234 8.35,15.51C8.372,15.743 8.425,15.972 8.51,16.19C8.576,16.368 8.682,16.529 8.82,16.66C8.961,16.775 9.138,16.835 9.32,16.83Z" style="fill:white;fill-rule:nonzero;"/>
    </g>
    <g transform="matrix(1,0,0,1,0.14,0.14)">
        <path d="M5.72,578.6C6.075,578.578 6.428,578.677 6.72,578.88C6.97,579.062 7.173,579.302 7.31,579.58C7.454,579.877 7.552,580.194 7.6,580.52C7.651,580.851 7.678,581.185 7.68,581.52C7.677,581.855 7.651,582.189 7.6,582.52C7.552,582.846 7.454,583.163 7.31,583.46C7.173,583.738 6.97,583.978 6.72,584.16C6.428,584.363 6.075,584.462 5.72,584.44C5.365,584.462 5.012,584.363 4.72,584.16C4.47,583.978 4.267,583.738 4.13,583.46C3.986,583.163 3.888,582.846 3.84,582.52C3.789,582.189 3.763,581.855 3.76,581.52C3.762,581.185 3.789,580.851 3.84,580.52C3.888,580.194 3.986,579.877 4.13,579.58C4.267,579.302 4.47,579.062 4.72,578.88C5.012,578.677 5.365,578.578 5.72,578.6ZM5.72,583.67C5.901,583.673 6.078,583.613 6.22,583.5C6.361,583.372 6.468,583.21 6.53,583.03C6.614,582.811 6.671,582.583 6.7,582.35C6.716,582.07 6.716,581.79 6.7,581.51C6.716,581.237 6.716,580.963 6.7,580.69C6.669,580.454 6.612,580.223 6.53,580C6.468,579.82 6.361,579.658 6.22,579.53C6.078,579.417 5.901,579.357 5.72,579.36C5.538,579.355 5.361,579.415 5.22,579.53C5.079,579.658 4.972,579.82 4.91,580C4.828,580.223 4.771,580.454 4.74,580.69C4.724,580.963 4.724,581.237 4.74,581.51C4.724,581.79 4.724,582.07 4.74,582.35C4.769,582.583 4.826,582.811 4.91,583.03C4.972,583.21 5.079,583.372 5.22,583.5C5.361,583.615 5.538,583.675 5.72,583.67Z" style="fill:white;fill-rule:nonzero;"/>
    </g>
    <g transform="matrix(1,0,0,1,0.14,0.14)">
        <path d="M703.46,593L699.63,593C699.63,592.57 699.747,592.148 699.97,591.78C700.207,591.423 700.513,591.117 700.87,590.88L701.44,590.49C701.628,590.368 701.808,590.234 701.98,590.09C702.138,589.953 702.276,589.795 702.39,589.62C702.498,589.446 702.557,589.245 702.56,589.04C702.573,588.93 702.573,588.82 702.56,588.71C702.537,588.595 702.489,588.486 702.42,588.39C702.347,588.285 702.247,588.202 702.13,588.15C701.982,588.074 701.817,588.036 701.65,588.04C701.493,588.036 701.337,588.074 701.2,588.15C701.079,588.224 700.98,588.327 700.91,588.45C700.837,588.589 700.783,588.737 700.75,588.89C700.719,589.075 700.699,589.262 700.69,589.45L699.78,589.45C699.777,589.159 699.818,588.869 699.9,588.59C699.974,588.337 700.1,588.102 700.27,587.9C700.44,587.709 700.647,587.556 700.88,587.45C701.141,587.335 701.424,587.277 701.71,587.28C702.003,587.271 702.293,587.329 702.56,587.45C702.776,587.551 702.967,587.698 703.12,587.88C703.256,588.041 703.358,588.228 703.42,588.43C703.478,588.618 703.508,588.813 703.51,589.01C703.508,589.217 703.475,589.423 703.41,589.62C703.336,589.797 703.242,589.965 703.13,590.12C703.006,590.272 702.869,590.413 702.72,590.54C702.58,590.66 702.42,590.78 702.26,590.9L701.78,591.22C701.62,591.32 701.47,591.42 701.34,591.52C701.209,591.614 701.088,591.721 700.98,591.84C700.884,591.939 700.813,592.059 700.77,592.19L703.5,592.19L703.46,593Z" style="fill:white;fill-rule:nonzero;"/>
    </g>
    <g transform="matrix(1,0,0,1,0.14,0.14)">
        <path d="M704.76,587.35L707.66,587.35L707.66,588.16L705.44,588.16L705.15,589.59C705.277,589.445 705.439,589.335 705.62,589.27C705.799,589.2 705.988,589.163 706.18,589.16C706.434,589.156 706.685,589.204 706.92,589.3C707.134,589.385 707.326,589.518 707.48,589.69C707.632,589.866 707.747,590.07 707.82,590.29C707.898,590.529 707.935,590.779 707.93,591.03C707.93,591.267 707.897,591.503 707.83,591.73C707.751,591.965 707.633,592.185 707.48,592.38C707.313,592.577 707.109,592.74 706.88,592.86C706.604,592.986 706.303,593.047 706,593.04C705.743,593.045 705.487,593.011 705.24,592.94C705.017,592.871 704.81,592.758 704.63,592.61C704.45,592.469 704.307,592.287 704.21,592.08C704.095,591.85 704.034,591.597 704.03,591.34L705,591.34C705.006,591.605 705.118,591.857 705.31,592.04C705.509,592.211 705.768,592.298 706.03,592.28C706.198,592.284 706.365,592.253 706.52,592.19C706.648,592.128 706.758,592.036 706.84,591.92C706.928,591.805 706.989,591.671 707.02,591.53C707.036,591.37 707.036,591.21 707.02,591.05C707.02,590.901 707,590.753 706.96,590.61C706.918,590.472 706.85,590.343 706.76,590.23C706.672,590.121 706.559,590.035 706.43,589.98C706.284,589.909 706.122,589.875 705.96,589.88C705.774,589.879 705.59,589.916 705.42,589.99C705.248,590.068 705.114,590.212 705.05,590.39L704.14,590.39L704.76,587.35Z" style="fill:white;fill-rule:nonzero;"/>
    </g>
    <g transform="matrix(26.3171,0,0,26.3171,531.585,521.098)">
        <path d="M0.271,0.01C0.216,0.01 0.15,0.005 0.073,-0.006L0.073,-0.087C0.15,-0.07 0.218,-0.062 0.277,-0.062C0.326,-0.062 0.362,-0.068 0.385,-0.079C0.408,-0.09 0.419,-0.11 0.419,-0.14L0.419,-0.224C0.419,-0.252 0.411,-0.272 0.395,-0.283C0.379,-0.294 0.351,-0.3 0.311,-0.3L0.235,-0.3C0.172,-0.3 0.127,-0.313 0.1,-0.338C0.073,-0.363 0.06,-0.403 0.06,-0.456L0.06,-0.508C0.06,-0.543 0.068,-0.572 0.084,-0.594C0.099,-0.616 0.126,-0.632 0.163,-0.643C0.2,-0.654 0.25,-0.659 0.315,-0.659C0.358,-0.659 0.414,-0.655 0.482,-0.648L0.482,-0.575C0.406,-0.586 0.348,-0.592 0.308,-0.592C0.246,-0.592 0.205,-0.586 0.185,-0.574C0.164,-0.561 0.154,-0.54 0.154,-0.511L0.154,-0.437C0.154,-0.414 0.162,-0.398 0.179,-0.388C0.195,-0.377 0.223,-0.372 0.263,-0.372L0.341,-0.372C0.386,-0.372 0.421,-0.367 0.446,-0.356C0.47,-0.345 0.488,-0.329 0.499,-0.308C0.509,-0.286 0.514,-0.257 0.514,-0.22L0.514,-0.173C0.514,-0.127 0.505,-0.091 0.489,-0.064C0.471,-0.037 0.445,-0.018 0.41,-0.007C0.375,0.004 0.328,0.01 0.271,0.01Z" style="fill:rgb(228,0,0);fill-rule:nonzero;"/>
    </g>
    <g transform="matrix(26.3171,0,0,26.3171,546.559,521.098)">
        <path d="M0.012,-0.484L0.111,-0.484L0.229,-0.086L0.235,-0.086L0.349,-0.484L0.45,-0.484L0.568,-0.086L0.574,-0.086L0.688,-0.484L0.78,-0.484L0.621,0L0.514,0L0.397,-0.391L0.282,0L0.175,0L0.012,-0.484Z" style="fill:rgb(228,0,0);fill-rule:nonzero;"/>
    </g>
    <g transform="matrix(26.3171,0,0,26.3171,567.403,521.098)">
        <path d="M0.078,-0.659L0.168,-0.659L0.168,-0.565L0.078,-0.565L0.078,-0.659ZM0.078,-0.484L0.168,-0.484L0.168,0L0.078,0L0.078,-0.484Z" style="fill:rgb(228,0,0);fill-rule:nonzero;"/>
    </g>
    <g transform="matrix(26.3171,0,0,26.3171,573.877,521.098)">
        <path d="M0.281,0.01C0.24,0.01 0.207,0.005 0.184,-0.004C0.161,-0.013 0.144,-0.028 0.134,-0.05C0.123,-0.071 0.118,-0.102 0.118,-0.141L0.118,-0.425L0.01,-0.425L0.01,-0.484L0.118,-0.484L0.118,-0.634L0.209,-0.634L0.209,-0.484L0.382,-0.484L0.382,-0.425L0.209,-0.425L0.209,-0.136C0.209,-0.112 0.212,-0.094 0.218,-0.082C0.223,-0.07 0.233,-0.062 0.248,-0.057C0.262,-0.051 0.283,-0.049 0.31,-0.049C0.319,-0.049 0.343,-0.052 0.382,-0.057L0.382,0.002C0.348,0.007 0.314,0.01 0.281,0.01Z" style="fill:rgb(228,0,0);fill-rule:nonzero;"/>
    </g>
    <g transform="matrix(26.3171,0,0,26.3171,584.456,521.098)">
        <path d="M0.273,0.01C0.24,0.01 0.216,0.009 0.201,0.008C0.186,0.007 0.168,0.003 0.149,-0.002C0.128,-0.007 0.112,-0.015 0.101,-0.026C0.09,-0.037 0.08,-0.052 0.072,-0.073C0.064,-0.093 0.06,-0.118 0.06,-0.148L0.06,-0.326C0.06,-0.38 0.07,-0.419 0.091,-0.442C0.102,-0.455 0.114,-0.466 0.126,-0.472C0.137,-0.48 0.152,-0.484 0.171,-0.487C0.19,-0.49 0.206,-0.492 0.221,-0.493C0.236,-0.494 0.256,-0.494 0.283,-0.494C0.329,-0.494 0.375,-0.489 0.421,-0.479L0.421,-0.413C0.368,-0.426 0.318,-0.433 0.272,-0.433C0.237,-0.433 0.212,-0.431 0.196,-0.426C0.179,-0.421 0.168,-0.411 0.162,-0.399C0.155,-0.386 0.152,-0.366 0.152,-0.339L0.152,-0.141C0.152,-0.116 0.156,-0.098 0.163,-0.086C0.17,-0.074 0.182,-0.066 0.201,-0.061C0.219,-0.056 0.246,-0.053 0.282,-0.053C0.331,-0.053 0.379,-0.059 0.428,-0.072L0.428,-0.004C0.383,0.005 0.331,0.01 0.273,0.01Z" style="fill:rgb(228,0,0);fill-rule:nonzero;"/>
    </g>
    <g transform="matrix(26.3171,0,0,26.3171,596.667,521.098)">
        <path d="M0.078,-0.7L0.168,-0.7L0.168,-0.425C0.177,-0.471 0.23,-0.494 0.327,-0.494C0.389,-0.494 0.433,-0.483 0.458,-0.461C0.483,-0.438 0.495,-0.403 0.495,-0.355L0.495,0L0.405,0L0.405,-0.349C0.405,-0.362 0.404,-0.372 0.402,-0.38C0.4,-0.388 0.396,-0.396 0.39,-0.404C0.377,-0.421 0.347,-0.429 0.301,-0.429C0.264,-0.429 0.236,-0.427 0.218,-0.422C0.199,-0.417 0.186,-0.408 0.179,-0.397C0.172,-0.386 0.168,-0.37 0.168,-0.349L0.168,0L0.078,0L0.078,-0.7Z" style="fill:rgb(228,0,0);fill-rule:nonzero;"/>
    </g>
    <g transform="matrix(26.3171,0,0,26.3171,611.747,521.098)">
        <path d="M0.012,-0.484L0.111,-0.484L0.229,-0.086L0.235,-0.086L0.349,-0.484L0.45,-0.484L0.568,-0.086L0.574,-0.086L0.688,-0.484L0.78,-0.484L0.621,0L0.514,0L0.397,-0.391L0.282,0L0.175,0L0.012,-0.484Z" style="fill:rgb(228,0,0);fill-rule:nonzero;"/>
    </g>
    <g transform="matrix(26.3171,0,0,26.3171,632.59,521.098)">
        <path d="M0.078,-0.659L0.168,-0.659L0.168,-0.565L0.078,-0.565L0.078,-0.659ZM0.078,-0.484L0.168,-0.484L0.168,0L0.078,0L0.078,-0.484Z" style="fill:rgb(228,0,0);fill-rule:nonzero;"/>
    </g>
    <g transform="matrix(26.3171,0,0,26.3171,639.064,521.098)">
        <path d="M0.078,-0.484L0.163,-0.484L0.163,-0.405C0.163,-0.42 0.17,-0.435 0.183,-0.449C0.196,-0.462 0.213,-0.473 0.234,-0.482C0.255,-0.49 0.275,-0.494 0.295,-0.494L0.339,-0.494L0.339,-0.417L0.289,-0.417C0.246,-0.417 0.216,-0.411 0.197,-0.401C0.178,-0.39 0.168,-0.37 0.168,-0.341L0.168,0L0.078,0L0.078,-0.484Z" style="fill:rgb(228,0,0);fill-rule:nonzero;"/>
    </g>
    <g transform="matrix(26.3171,0,0,26.3171,648.301,521.098)">
        <path d="M0.282,0.01C0.134,0.01 0.06,-0.039 0.06,-0.138L0.06,-0.329C0.06,-0.388 0.077,-0.43 0.111,-0.456C0.144,-0.481 0.199,-0.494 0.274,-0.494C0.345,-0.494 0.397,-0.482 0.429,-0.457C0.46,-0.432 0.476,-0.39 0.476,-0.329L0.476,-0.222L0.151,-0.222L0.151,-0.149C0.151,-0.116 0.163,-0.092 0.186,-0.077C0.209,-0.062 0.245,-0.055 0.294,-0.055C0.34,-0.055 0.394,-0.063 0.457,-0.079L0.457,-0.01C0.396,0.003 0.337,0.01 0.282,0.01ZM0.386,-0.281L0.386,-0.357C0.386,-0.386 0.377,-0.406 0.36,-0.418C0.342,-0.429 0.312,-0.434 0.269,-0.434C0.228,-0.434 0.198,-0.429 0.179,-0.418C0.16,-0.406 0.151,-0.386 0.151,-0.357L0.151,-0.281L0.386,-0.281Z" style="fill:rgb(228,0,0);fill-rule:nonzero;"/>
    </g>
    <g transform="matrix(26.3171,0,0,26.3171,442.475,520.511)">
        <path d="M0.015,-0.649L0.116,-0.649L0.324,-0.092L0.333,-0.092L0.541,-0.649L0.637,-0.649L0.379,0L0.267,0L0.015,-0.649Z" style="fill:rgb(248,248,248);fill-rule:nonzero;"/>
    </g>
    <g transform="matrix(26.3171,0,0,26.3171,459.633,520.511)">
        <path d="M0.338,0.01C0.157,0.01 0.066,-0.049 0.066,-0.166L0.066,-0.473C0.066,-0.597 0.157,-0.659 0.338,-0.659C0.521,-0.659 0.613,-0.597 0.613,-0.474L0.613,-0.166C0.613,-0.103 0.588,-0.058 0.537,-0.031C0.486,-0.004 0.42,0.01 0.338,0.01ZM0.34,-0.055C0.459,-0.055 0.519,-0.092 0.519,-0.167L0.519,-0.476C0.519,-0.556 0.459,-0.596 0.339,-0.596C0.281,-0.596 0.236,-0.587 0.205,-0.569C0.174,-0.551 0.159,-0.52 0.159,-0.476L0.159,-0.167C0.159,-0.092 0.219,-0.055 0.34,-0.055Z" style="fill:rgb(248,248,248);fill-rule:nonzero;"/>
    </g>
    <g transform="matrix(26.3171,0,0,26.3171,477.503,520.511)">
        <path d="M0.084,-0.649L0.312,-0.649C0.369,-0.649 0.414,-0.646 0.447,-0.639C0.479,-0.631 0.502,-0.619 0.518,-0.601C0.533,-0.583 0.54,-0.557 0.54,-0.522L0.54,-0.41C0.54,-0.371 0.524,-0.342 0.493,-0.321C0.461,-0.3 0.421,-0.289 0.372,-0.289L0.58,0L0.461,0L0.275,-0.277L0.181,-0.277L0.181,0L0.084,0L0.084,-0.649ZM0.308,-0.341C0.356,-0.341 0.391,-0.347 0.411,-0.359C0.433,-0.37 0.443,-0.391 0.443,-0.422L0.443,-0.512C0.443,-0.561 0.401,-0.585 0.317,-0.585L0.181,-0.585L0.181,-0.341L0.308,-0.341Z" style="fill:rgb(248,248,248);fill-rule:nonzero;"/>
    </g>
    <g transform="matrix(26.3171,0,0,26.3171,494.135,520.511)">
        <path d="M0.338,0.01C0.157,0.01 0.066,-0.049 0.066,-0.166L0.066,-0.473C0.066,-0.597 0.157,-0.659 0.338,-0.659C0.521,-0.659 0.613,-0.597 0.613,-0.474L0.613,-0.166C0.613,-0.103 0.588,-0.058 0.537,-0.031C0.486,-0.004 0.42,0.01 0.338,0.01ZM0.34,-0.055C0.459,-0.055 0.519,-0.092 0.519,-0.167L0.519,-0.476C0.519,-0.556 0.459,-0.596 0.339,-0.596C0.281,-0.596 0.236,-0.587 0.205,-0.569C0.174,-0.551 0.159,-0.52 0.159,-0.476L0.159,-0.167C0.159,-0.092 0.219,-0.055 0.34,-0.055Z" style="fill:rgb(248,248,248);fill-rule:nonzero;"/>
    </g>
    <g transform="matrix(26.3171,0,0,26.3171,512.005,520.511)">
        <path d="M0.084,-0.649L0.201,-0.649L0.554,-0.113L0.554,-0.649L0.639,-0.649L0.639,0L0.522,0L0.169,-0.545L0.169,0L0.084,0L0.084,-0.649Z" style="fill:rgb(248,248,248);fill-rule:nonzero;"/>
    </g>
</svg>
